<svg width="20" height="20" viewBox="0 0 20 20" fill="none" xmlns="http://www.w3.org/2000/svg">
<path d="M5.66406 8.20312C5.66406 8.63461 5.3143 8.98438 4.88281 8.98438C4.45133 8.98438 4.10156 8.63461 4.10156 8.20312C4.10156 7.77164 4.45133 7.42188 4.88281 7.42188C5.3143 7.42188 5.66406 7.77164 5.66406 8.20312Z" fill="url(#paint0_linear_1490_6585)"/>
<path d="M12.4609 8.20312C12.4609 7.77164 12.1112 7.42188 11.6797 7.42188C11.2482 7.42188 10.8984 7.77164 10.8984 8.20312C10.8984 8.63461 11.2482 8.98438 11.6797 8.98438C12.1112 8.98438 12.4609 8.63461 12.4609 8.20312Z" fill="url(#paint1_linear_1490_6585)"/>
<path d="M15.8594 8.20312C15.8594 7.77164 15.5096 7.42188 15.0781 7.42188C14.6466 7.42188 14.2969 7.77164 14.2969 8.20312C14.2969 8.63461 14.6466 8.98438 15.0781 8.98438C15.5096 8.98438 15.8594 8.63461 15.8594 8.20312Z" fill="url(#paint2_linear_1490_6585)"/>
<path d="M5.66406 11.6016C5.66406 11.1701 5.3143 10.8203 4.88281 10.8203C4.45133 10.8203 4.10156 11.1701 4.10156 11.6016C4.10156 12.033 4.45133 12.3828 4.88281 12.3828C5.3143 12.3828 5.66406 12.033 5.66406 11.6016Z" fill="url(#paint3_linear_1490_6585)"/>
<path d="M4.88281 14.2188C4.45133 14.2188 4.10156 14.5685 4.10156 15C4.10156 15.4315 4.45133 15.7812 4.88281 15.7812C5.3143 15.7812 5.66406 15.4315 5.66406 15C5.66406 14.5685 5.3143 14.2188 4.88281 14.2188Z" fill="url(#paint4_linear_1490_6585)"/>
<path d="M9.0625 8.20312C9.0625 7.77164 8.71273 7.42188 8.28125 7.42188C7.84977 7.42188 7.5 7.77164 7.5 8.20312C7.5 8.63461 7.84977 8.98438 8.28125 8.98438C8.71273 8.98438 9.0625 8.63461 9.0625 8.20312Z" fill="url(#paint5_linear_1490_6585)"/>
<path d="M9.0625 11.6016C9.0625 11.1701 8.71273 10.8203 8.28125 10.8203C7.84977 10.8203 7.5 11.1701 7.5 11.6016C7.5 12.033 7.84977 12.3828 8.28125 12.3828C8.71273 12.3828 9.0625 12.033 9.0625 11.6016Z" fill="url(#paint6_linear_1490_6585)"/>
<path d="M8.28125 14.2188C7.84977 14.2188 7.5 14.5685 7.5 15C7.5 15.4315 7.84977 15.7812 8.28125 15.7812C8.71273 15.7812 9.0625 15.4315 9.0625 15C9.0625 14.5685 8.71273 14.2188 8.28125 14.2188Z" fill="url(#paint7_linear_1490_6585)"/>
<path d="M11.6797 10.7812C12.1112 10.7812 12.4609 11.131 12.4609 11.5625C12.4609 11.994 12.1112 12.3438 11.6797 12.3438C11.2482 12.3438 10.8984 11.994 10.8984 11.5625C10.8984 11.131 11.2482 10.7812 11.6797 10.7812Z" fill="url(#paint8_linear_1490_6585)"/>
<path d="M15.8594 11.5625C15.8594 11.131 15.5096 10.7812 15.0781 10.7812C14.6466 10.7812 14.2969 11.131 14.2969 11.5625C14.2969 11.994 14.6466 12.3438 15.0781 12.3438C15.5096 12.3438 15.8594 11.994 15.8594 11.5625Z" fill="url(#paint9_linear_1490_6585)"/>
<path d="M11.6797 14.1016C12.1112 14.1016 12.4609 14.4513 12.4609 14.8828C12.4609 15.3143 12.1112 15.6641 11.6797 15.6641C11.2482 15.6641 10.8984 15.3143 10.8984 14.8828C10.8984 14.4513 11.2482 14.1016 11.6797 14.1016Z" fill="url(#paint10_linear_1490_6585)"/>
<path d="M15.8594 14.8828C15.8594 14.4513 15.5096 14.1016 15.0781 14.1016C14.6466 14.1016 14.2969 14.4513 14.2969 14.8828C14.2969 15.3143 14.6466 15.6641 15.0781 15.6641C15.5096 15.6641 15.8594 15.3143 15.8594 14.8828Z" fill="url(#paint11_linear_1490_6585)"/>
<path fill-rule="evenodd" clip-rule="evenodd" d="M16.875 1.5625H15.8594V0.78125C15.8594 0.349766 15.5096 0 15.0781 0C14.6466 0 14.2969 0.349766 14.2969 0.78125V1.5625H10.7422V0.78125C10.7422 0.349766 10.3924 0 9.96094 0C9.52945 0 9.17969 0.349766 9.17969 0.78125V1.5625H5.66406V0.78125C5.66406 0.349766 5.3143 0 4.88281 0C4.45133 0 4.10156 0.349766 4.10156 0.78125V1.5625H3.125C1.40188 1.5625 0 2.96438 0 4.6875V16.875C0 18.5981 1.40188 20 3.125 20H16.875C18.5981 20 20 18.5981 20 16.875V4.6875C20 2.96438 18.5981 1.5625 16.875 1.5625ZM18.4375 4.6875C18.4375 3.82594 17.7366 3.125 16.875 3.125H15.8594V3.90625C15.8594 4.33773 15.5096 4.6875 15.0781 4.6875C14.6466 4.6875 14.2969 4.33773 14.2969 3.90625V3.125H10.7422V3.90625C10.7422 4.33773 10.3924 4.6875 9.96094 4.6875C9.52945 4.6875 9.17969 4.33773 9.17969 3.90625V3.125H5.66406V3.90625C5.66406 4.33773 5.3143 4.6875 4.88281 4.6875C4.45133 4.6875 4.10156 4.33773 4.10156 3.90625V3.125H3.125C2.26344 3.125 1.5625 3.82594 1.5625 4.6875V16.875C1.5625 17.7366 2.26344 18.4375 3.125 18.4375H16.875C17.7366 18.4375 18.4375 17.7366 18.4375 16.875V4.6875Z" fill="url(#paint12_linear_1490_6585)"/>
<defs>
<linearGradient id="paint0_linear_1490_6585" x1="17.2626" y1="9.99291" x2="2.50308" y2="9.99291" gradientUnits="userSpaceOnUse">
<stop stop-color="#FA8FFF"/>
<stop offset="1" stop-color="#B3F1FF"/>
</linearGradient>
<linearGradient id="paint1_linear_1490_6585" x1="17.2626" y1="9.99291" x2="2.50308" y2="9.99291" gradientUnits="userSpaceOnUse">
<stop stop-color="#FA8FFF"/>
<stop offset="1" stop-color="#B3F1FF"/>
</linearGradient>
<linearGradient id="paint2_linear_1490_6585" x1="17.2626" y1="9.99291" x2="2.50308" y2="9.99291" gradientUnits="userSpaceOnUse">
<stop stop-color="#FA8FFF"/>
<stop offset="1" stop-color="#B3F1FF"/>
</linearGradient>
<linearGradient id="paint3_linear_1490_6585" x1="17.2626" y1="9.99291" x2="2.50308" y2="9.99291" gradientUnits="userSpaceOnUse">
<stop stop-color="#FA8FFF"/>
<stop offset="1" stop-color="#B3F1FF"/>
</linearGradient>
<linearGradient id="paint4_linear_1490_6585" x1="17.2626" y1="9.99291" x2="2.50308" y2="9.99291" gradientUnits="userSpaceOnUse">
<stop stop-color="#FA8FFF"/>
<stop offset="1" stop-color="#B3F1FF"/>
</linearGradient>
<linearGradient id="paint5_linear_1490_6585" x1="17.2626" y1="9.99291" x2="2.50308" y2="9.99291" gradientUnits="userSpaceOnUse">
<stop stop-color="#FA8FFF"/>
<stop offset="1" stop-color="#B3F1FF"/>
</linearGradient>
<linearGradient id="paint6_linear_1490_6585" x1="17.2626" y1="9.99291" x2="2.50308" y2="9.99291" gradientUnits="userSpaceOnUse">
<stop stop-color="#FA8FFF"/>
<stop offset="1" stop-color="#B3F1FF"/>
</linearGradient>
<linearGradient id="paint7_linear_1490_6585" x1="17.2626" y1="9.99291" x2="2.50308" y2="9.99291" gradientUnits="userSpaceOnUse">
<stop stop-color="#FA8FFF"/>
<stop offset="1" stop-color="#B3F1FF"/>
</linearGradient>
<linearGradient id="paint8_linear_1490_6585" x1="17.2626" y1="9.99291" x2="2.50308" y2="9.99291" gradientUnits="userSpaceOnUse">
<stop stop-color="#FA8FFF"/>
<stop offset="1" stop-color="#B3F1FF"/>
</linearGradient>
<linearGradient id="paint9_linear_1490_6585" x1="17.2626" y1="9.99291" x2="2.50308" y2="9.99291" gradientUnits="userSpaceOnUse">
<stop stop-color="#FA8FFF"/>
<stop offset="1" stop-color="#B3F1FF"/>
</linearGradient>
<linearGradient id="paint10_linear_1490_6585" x1="17.2626" y1="9.99291" x2="2.50308" y2="9.99291" gradientUnits="userSpaceOnUse">
<stop stop-color="#FA8FFF"/>
<stop offset="1" stop-color="#B3F1FF"/>
</linearGradient>
<linearGradient id="paint11_linear_1490_6585" x1="17.2626" y1="9.99291" x2="2.50308" y2="9.99291" gradientUnits="userSpaceOnUse">
<stop stop-color="#FA8FFF"/>
<stop offset="1" stop-color="#B3F1FF"/>
</linearGradient>
<linearGradient id="paint12_linear_1490_6585" x1="17.2626" y1="9.99291" x2="2.50308" y2="9.99291" gradientUnits="userSpaceOnUse">
<stop stop-color="#FA8FFF"/>
<stop offset="1" stop-color="#B3F1FF"/>
</linearGradient>
</defs>
</svg>
