<svg width="16" height="26" viewBox="0 0 16 26" fill="none" xmlns="http://www.w3.org/2000/svg">
<path d="M9.81901 25.8756H5.55245C4.8398 25.8756 4.26008 25.3188 4.26008 24.6343V15.3908H1.77088C1.05823 15.3908 0.478516 14.8337 0.478516 14.1494V10.1886C0.478516 9.50404 1.05823 8.94721 1.77088 8.94721H4.26008V6.96374C4.26008 4.99707 4.90301 3.32385 6.11916 2.12526C7.34079 0.921205 9.04802 0.284912 11.0563 0.284912L14.3102 0.289988C15.0216 0.29116 15.6003 0.84799 15.6003 1.53134V5.20891C15.6003 5.89343 15.0208 6.45026 14.3084 6.45026L12.1175 6.45104C11.4494 6.45104 11.2793 6.5797 11.2429 6.61914C11.1829 6.68455 11.1116 6.86944 11.1116 7.38V8.94701H14.1437C14.372 8.94701 14.5931 9.00109 14.7832 9.10301C15.1932 9.32305 15.4481 9.73911 15.4481 10.1887L15.4464 14.1496C15.4464 14.8337 14.8667 15.3906 14.1541 15.3906H11.1116V24.6343C11.1116 25.3188 10.5317 25.8756 9.81901 25.8756ZM5.82198 24.3754H9.54948V14.7191C9.54948 14.2621 9.9367 13.8903 10.4123 13.8903H13.8845L13.886 10.4474H10.4121C9.9365 10.4474 9.54948 10.0757 9.54948 9.61864V7.38C9.54948 6.79388 9.61148 6.12733 10.0721 5.62634C10.6286 5.0207 11.5057 4.9508 12.1171 4.9508L14.0384 4.95002V1.78984L11.0551 1.78515C7.82761 1.78515 5.82198 3.76959 5.82198 6.96374V9.61864C5.82198 10.0755 5.43496 10.4474 4.95932 10.4474H2.04041V13.8903H4.95932C5.43496 13.8903 5.82198 14.2621 5.82198 14.7191V24.3754Z" fill="url(#paint0_linear_1359_164)"/>
<path d="M9.81901 25.8756H5.55245C4.8398 25.8756 4.26008 25.3188 4.26008 24.6343V15.3908H1.77088C1.05823 15.3908 0.478516 14.8337 0.478516 14.1494V10.1886C0.478516 9.50404 1.05823 8.94721 1.77088 8.94721H4.26008V6.96374C4.26008 4.99707 4.90301 3.32385 6.11916 2.12526C7.34079 0.921205 9.04802 0.284912 11.0563 0.284912L14.3102 0.289988C15.0216 0.29116 15.6003 0.84799 15.6003 1.53134V5.20891C15.6003 5.89343 15.0208 6.45026 14.3084 6.45026L12.1175 6.45104C11.4494 6.45104 11.2793 6.5797 11.2429 6.61914C11.1829 6.68455 11.1116 6.86944 11.1116 7.38V8.94701H14.1437C14.372 8.94701 14.5931 9.00109 14.7832 9.10301C15.1932 9.32305 15.4481 9.73911 15.4481 10.1887L15.4464 14.1496C15.4464 14.8337 14.8667 15.3906 14.1541 15.3906H11.1116V24.6343C11.1116 25.3188 10.5317 25.8756 9.81901 25.8756ZM5.82198 24.3754H9.54948V14.7191C9.54948 14.2621 9.9367 13.8903 10.4123 13.8903H13.8845L13.886 10.4474H10.4121C9.9365 10.4474 9.54948 10.0757 9.54948 9.61864V7.38C9.54948 6.79388 9.61148 6.12733 10.0721 5.62634C10.6286 5.0207 11.5057 4.9508 12.1171 4.9508L14.0384 4.95002V1.78984L11.0551 1.78515C7.82761 1.78515 5.82198 3.76959 5.82198 6.96374V9.61864C5.82198 10.0755 5.43496 10.4474 4.95932 10.4474H2.04041V13.8903H4.95932C5.43496 13.8903 5.82198 14.2621 5.82198 14.7191V24.3754Z" fill="#FFFAEA"/>
<defs>
<linearGradient id="paint0_linear_1359_164" x1="-6.94491" y1="0.284913" x2="19.0371" y2="0.284913" gradientUnits="userSpaceOnUse">
<stop offset="0.456435" stop-color="#BC27EF"/>
<stop offset="1" stop-color="#2ECFFF"/>
</linearGradient>
</defs>
</svg>
