<svg width="39" height="27" viewBox="0 0 39 27" fill="none" xmlns="http://www.w3.org/2000/svg">
<path d="M1 26L1 19.5C0.999999 9.28273 9.28273 1 19.5 1C29.7173 1 38 9.28273 38 19.5L38 26L1 26Z" fill="#06133B" stroke="url(#paint0_linear_1545_3594)" stroke-width="2"/>
<path d="M20.7071 6.29289C20.3166 5.90237 19.6834 5.90237 19.2929 6.29289L12.9289 12.6569C12.5384 13.0474 12.5384 13.6805 12.9289 14.0711C13.3195 14.4616 13.9526 14.4616 14.3431 14.0711L20 8.41421L25.6569 14.0711C26.0474 14.4616 26.6805 14.4616 27.0711 14.0711C27.4616 13.6805 27.4616 13.0474 27.0711 12.6569L20.7071 6.29289ZM21 23L21 7L19 7L19 23L21 23Z" fill="url(#paint1_linear_1545_3594)"/>
<defs>
<linearGradient id="paint0_linear_1545_3594" x1="22.2611" y1="1.87935" x2="22.2383" y2="27.0006" gradientUnits="userSpaceOnUse">
<stop stop-color="#DC000C"/>
<stop offset="1" stop-color="#FF303B"/>
</linearGradient>
<linearGradient id="paint1_linear_1545_3594" x1="21" y1="23" x2="21" y2="4.74359" gradientUnits="userSpaceOnUse">
<stop stop-color="#E30613" stop-opacity="0"/>
<stop offset="0.479167" stop-color="#F6B6B2"/>
<stop offset="0.964431" stop-color="#FFF0C8"/>
</linearGradient>
</defs>
</svg>
