<svg width="21" height="11" viewBox="0 0 21 11" fill="none" xmlns="http://www.w3.org/2000/svg">
<path d="M11.0763 10.7679L20.7625 1.34724C21.0797 1.03858 21.0792 0.538859 20.7609 0.230718C20.4426 -0.0771833 19.9271 -0.0763877 19.6097 0.23231L10.5 9.09224L1.39026 0.23199C1.0728 -0.0766671 0.557608 -0.0774628 0.239326 0.230399C0.0797767 0.384867 -2.56687e-08 0.587231 -3.45143e-08 0.789595C-4.33373e-08 0.991442 0.0792427 1.19301 0.237686 1.3472L9.92369 10.7679C10.0762 10.9166 10.2837 11 10.5 11C10.7162 11 10.9235 10.9163 11.0763 10.7679Z" fill="#002D72"/>
<path d="M11.0763 10.7679L20.7625 1.34724C21.0797 1.03858 21.0792 0.538859 20.7609 0.230718C20.4426 -0.0771833 19.9271 -0.0763877 19.6097 0.23231L10.5 9.09224L1.39026 0.23199C1.0728 -0.0766671 0.557608 -0.0774628 0.239326 0.230399C0.0797767 0.384867 -2.56687e-08 0.587231 -3.45143e-08 0.789595C-4.33373e-08 0.991442 0.0792427 1.19301 0.237686 1.3472L9.92369 10.7679C10.0762 10.9166 10.2837 11 10.5 11C10.7162 11 10.9235 10.9163 11.0763 10.7679Z" fill="url(#paint0_linear_1493_6674)"/>
<defs>
<linearGradient id="paint0_linear_1493_6674" x1="3.11747" y1="11" x2="2.42738" y2="-1.75946" gradientUnits="userSpaceOnUse">
<stop offset="0.0785844" stop-color="#BD24C4"/>
<stop offset="0.652293" stop-color="#2179FF"/>
</linearGradient>
</defs>
</svg>
