<svg width="25" height="25" viewBox="0 0 25 25" fill="none" xmlns="http://www.w3.org/2000/svg">
<path d="M17.4265 0.284912H7.19054C3.27789 0.284912 0.0947266 3.46808 0.0947266 7.38073V17.6166C0.0947266 21.5293 3.27789 24.7124 7.19054 24.7124H17.4264C21.3391 24.7124 24.5222 21.5293 24.5222 17.6167V7.38073C24.5222 3.46808 21.3391 0.284912 17.4265 0.284912ZM22.6138 17.6166C22.6138 20.477 20.2868 22.804 17.4265 22.804H7.19054C4.33018 22.804 2.00313 20.477 2.00313 17.6167V7.38073C2.00313 4.52037 4.33018 2.19331 7.19054 2.19331H17.4264C20.2868 2.19331 22.6138 4.52037 22.6138 7.38073V17.6166Z" fill="url(#paint0_linear_1359_161)"/>
<path d="M17.4265 0.284912H7.19054C3.27789 0.284912 0.0947266 3.46808 0.0947266 7.38073V17.6166C0.0947266 21.5293 3.27789 24.7124 7.19054 24.7124H17.4264C21.3391 24.7124 24.5222 21.5293 24.5222 17.6167V7.38073C24.5222 3.46808 21.3391 0.284912 17.4265 0.284912ZM22.6138 17.6166C22.6138 20.477 20.2868 22.804 17.4265 22.804H7.19054C4.33018 22.804 2.00313 20.477 2.00313 17.6167V7.38073C2.00313 4.52037 4.33018 2.19331 7.19054 2.19331H17.4264C20.2868 2.19331 22.6138 4.52037 22.6138 7.38073V17.6166Z" fill="white"/>
<path d="M12.3085 5.91469C8.67804 5.91469 5.72451 8.86823 5.72451 12.4987C5.72451 16.1291 8.67804 19.0827 12.3085 19.0827C15.9389 19.0827 18.8925 16.1291 18.8925 12.4987C18.8925 8.86823 15.9389 5.91469 12.3085 5.91469ZM12.3085 17.1743C9.73038 17.1743 7.63291 15.0768 7.63291 12.4987C7.63291 9.92057 9.73038 7.82309 12.3085 7.82309C14.8866 7.82309 16.9841 9.92057 16.9841 12.4987C16.9841 15.0768 14.8866 17.1743 12.3085 17.1743Z" fill="url(#paint1_linear_1359_161)"/>
<path d="M12.3085 5.91469C8.67804 5.91469 5.72451 8.86823 5.72451 12.4987C5.72451 16.1291 8.67804 19.0827 12.3085 19.0827C15.9389 19.0827 18.8925 16.1291 18.8925 12.4987C18.8925 8.86823 15.9389 5.91469 12.3085 5.91469ZM12.3085 17.1743C9.73038 17.1743 7.63291 15.0768 7.63291 12.4987C7.63291 9.92057 9.73038 7.82309 12.3085 7.82309C14.8866 7.82309 16.9841 9.92057 16.9841 12.4987C16.9841 15.0768 14.8866 17.1743 12.3085 17.1743Z" fill="white"/>
<path d="M18.9879 6.77347C19.5149 6.77347 19.9421 6.34626 19.9421 5.81927C19.9421 5.29228 19.5149 4.86507 18.9879 4.86507C18.4609 4.86507 18.0337 5.29228 18.0337 5.81927C18.0337 6.34626 18.4609 6.77347 18.9879 6.77347Z" fill="url(#paint2_linear_1359_161)"/>
<path d="M18.9879 6.77347C19.5149 6.77347 19.9421 6.34626 19.9421 5.81927C19.9421 5.29228 19.5149 4.86507 18.9879 4.86507C18.4609 4.86507 18.0337 5.29228 18.0337 5.81927C18.0337 6.34626 18.4609 6.77347 18.9879 6.77347Z" fill="white"/>
<defs>
<linearGradient id="paint0_linear_1359_161" x1="-11.897" y1="0.284913" x2="30.074" y2="0.284913" gradientUnits="userSpaceOnUse">
<stop offset="0.456435" stop-color="#BC27EF"/>
<stop offset="1" stop-color="#2ECFFF"/>
</linearGradient>
<linearGradient id="paint1_linear_1359_161" x1="-11.897" y1="0.284913" x2="30.074" y2="0.284913" gradientUnits="userSpaceOnUse">
<stop offset="0.456435" stop-color="#BC27EF"/>
<stop offset="1" stop-color="#2ECFFF"/>
</linearGradient>
<linearGradient id="paint2_linear_1359_161" x1="-11.897" y1="0.284913" x2="30.074" y2="0.284913" gradientUnits="userSpaceOnUse">
<stop offset="0.456435" stop-color="#BC27EF"/>
<stop offset="1" stop-color="#2ECFFF"/>
</linearGradient>
</defs>
</svg>
