<svg width="24" height="26" viewBox="0 0 24 26" fill="none" xmlns="http://www.w3.org/2000/svg">
<path d="M5.67493 8.62378H1.15287C0.764213 8.62378 0.449219 8.94433 0.449219 9.33943V24.6704C0.449219 25.0657 0.764213 25.386 1.15287 25.386H5.67493C6.06359 25.386 6.37858 25.0657 6.37858 24.6704V9.33943C6.37858 8.94433 6.06359 8.62378 5.67493 8.62378ZM4.97128 23.9547H1.85652V10.0551H4.97128V23.9547Z" fill="url(#paint0_linear_1359_170)"/>
<path d="M5.67493 8.62378H1.15287C0.764213 8.62378 0.449219 8.94433 0.449219 9.33943V24.6704C0.449219 25.0657 0.764213 25.386 1.15287 25.386H5.67493C6.06359 25.386 6.37858 25.0657 6.37858 24.6704V9.33943C6.37858 8.94433 6.06359 8.62378 5.67493 8.62378ZM4.97128 23.9547H1.85652V10.0551H4.97128V23.9547Z" fill="#FFFAEA"/>
<path d="M3.41409 0.958496C1.77919 0.958496 0.449219 2.31115 0.449219 3.97354C0.449219 5.63631 1.77919 6.98878 3.41409 6.98878C5.04879 6.98878 6.37858 5.63613 6.37858 3.97354C6.37858 2.31115 5.04879 0.958496 3.41409 0.958496ZM3.41409 5.55748C2.55523 5.55748 1.85652 4.84705 1.85652 3.97354C1.85652 3.10023 2.55523 2.3898 3.41409 2.3898C4.27276 2.3898 4.97128 3.10023 4.97128 3.97354C4.97128 4.84705 4.27276 5.55748 3.41409 5.55748Z" fill="url(#paint1_linear_1359_170)"/>
<path d="M3.41409 0.958496C1.77919 0.958496 0.449219 2.31115 0.449219 3.97354C0.449219 5.63631 1.77919 6.98878 3.41409 6.98878C5.04879 6.98878 6.37858 5.63613 6.37858 3.97354C6.37858 2.31115 5.04879 0.958496 3.41409 0.958496ZM3.41409 5.55748C2.55523 5.55748 1.85652 4.84705 1.85652 3.97354C1.85652 3.10023 2.55523 2.3898 3.41409 2.3898C4.27276 2.3898 4.97128 3.10023 4.97128 3.97354C4.97128 4.84705 4.27276 5.55748 3.41409 5.55748Z" fill="#FFFAEA"/>
<path d="M16.9808 8.52258C15.9112 8.52258 14.857 8.7848 13.913 9.27532C13.8809 8.91023 13.5795 8.62378 13.2121 8.62378H8.68964C8.30117 8.62378 7.98599 8.94433 7.98599 9.33943V24.6704C7.98599 25.0657 8.30117 25.386 8.68964 25.386H13.2121C13.6007 25.386 13.9157 25.0657 13.9157 24.6704V16.2384C13.9157 15.1537 14.7836 14.2713 15.85 14.2713C16.9165 14.2713 17.784 15.1537 17.784 16.2384V24.6704C17.784 25.0657 18.0992 25.386 18.4876 25.386H23.0099C23.3985 25.386 23.7135 25.0657 23.7135 24.6704V15.3701C23.7135 11.5943 20.6933 8.52258 16.9808 8.52258ZM22.3062 23.9547H19.1915V16.2384C19.1915 14.3644 17.6925 12.84 15.8502 12.84C14.0075 12.84 12.5084 14.3644 12.5084 16.2384V23.9547H9.39348V10.0551H12.5084V10.5838C12.5084 10.8591 12.6636 11.1099 12.9077 11.229C13.1516 11.3481 13.4411 11.3142 13.6524 11.1422C14.6053 10.3648 15.7564 9.95388 16.9808 9.95388C19.9173 9.95388 22.3062 12.3836 22.3062 15.3701V23.9547Z" fill="url(#paint2_linear_1359_170)"/>
<path d="M16.9808 8.52258C15.9112 8.52258 14.857 8.7848 13.913 9.27532C13.8809 8.91023 13.5795 8.62378 13.2121 8.62378H8.68964C8.30117 8.62378 7.98599 8.94433 7.98599 9.33943V24.6704C7.98599 25.0657 8.30117 25.386 8.68964 25.386H13.2121C13.6007 25.386 13.9157 25.0657 13.9157 24.6704V16.2384C13.9157 15.1537 14.7836 14.2713 15.85 14.2713C16.9165 14.2713 17.784 15.1537 17.784 16.2384V24.6704C17.784 25.0657 18.0992 25.386 18.4876 25.386H23.0099C23.3985 25.386 23.7135 25.0657 23.7135 24.6704V15.3701C23.7135 11.5943 20.6933 8.52258 16.9808 8.52258ZM22.3062 23.9547H19.1915V16.2384C19.1915 14.3644 17.6925 12.84 15.8502 12.84C14.0075 12.84 12.5084 14.3644 12.5084 16.2384V23.9547H9.39348V10.0551H12.5084V10.5838C12.5084 10.8591 12.6636 11.1099 12.9077 11.229C13.1516 11.3481 13.4411 11.3142 13.6524 11.1422C14.6053 10.3648 15.7564 9.95388 16.9808 9.95388C19.9173 9.95388 22.3062 12.3836 22.3062 15.3701V23.9547Z" fill="#FFFAEA"/>
<defs>
<linearGradient id="paint0_linear_1359_170" x1="-10.9714" y1="0.958497" x2="29.0009" y2="0.958497" gradientUnits="userSpaceOnUse">
<stop offset="0.456435" stop-color="#BC27EF"/>
<stop offset="1" stop-color="#2ECFFF"/>
</linearGradient>
<linearGradient id="paint1_linear_1359_170" x1="-10.9714" y1="0.958497" x2="29.0009" y2="0.958497" gradientUnits="userSpaceOnUse">
<stop offset="0.456435" stop-color="#BC27EF"/>
<stop offset="1" stop-color="#2ECFFF"/>
</linearGradient>
<linearGradient id="paint2_linear_1359_170" x1="-10.9714" y1="0.958497" x2="29.0009" y2="0.958497" gradientUnits="userSpaceOnUse">
<stop offset="0.456435" stop-color="#BC27EF"/>
<stop offset="1" stop-color="#2ECFFF"/>
</linearGradient>
</defs>
</svg>
