<svg width="23" height="19" viewBox="0 0 23 19" fill="none" xmlns="http://www.w3.org/2000/svg">
<path d="M22.2804 10.3195C22.7455 9.85435 22.7455 9.10024 22.2804 8.63512L14.7008 1.05557C14.2357 0.590455 13.4816 0.590455 13.0165 1.05557C12.5514 1.52069 12.5514 2.2748 13.0165 2.73992L19.7539 9.4773L13.0165 16.2147C12.5514 16.6798 12.5514 17.4339 13.0165 17.899C13.4816 18.3641 14.2357 18.3641 14.7008 17.899L22.2804 10.3195ZM-1.04122e-07 10.6683L21.4382 10.6683L21.4382 8.28629L1.04122e-07 8.28628L-1.04122e-07 10.6683Z" fill="url(#paint0_linear_1673_176)"/>
<defs>
<linearGradient id="paint0_linear_1673_176" x1="-8.7423e-08" y1="10.4773" x2="24.4615" y2="10.4773" gradientUnits="userSpaceOnUse">
<stop stop-color="#000D2C" stop-opacity="0"/>
<stop stop-color="#000D2C"/>
<stop offset="0.0001" stop-color="#2C0000" stop-opacity="0"/>
<stop offset="1" stop-color="#FC000E"/>
</linearGradient>
</defs>
</svg>
