<svg width="27" height="13" viewBox="0 0 27 13" fill="none" xmlns="http://www.w3.org/2000/svg">
<path d="M2.91336 6.5C2.91336 4.277 4.72036 2.47 6.94336 2.47H12.1434V0H6.94336C3.35536 0 0.443359 2.912 0.443359 6.5C0.443359 10.088 3.35536 13 6.94336 13H12.1434V10.53H6.94336C4.72036 10.53 2.91336 8.723 2.91336 6.5ZM8.24336 7.8H18.6434V5.2H8.24336V7.8ZM19.9434 0H14.7434V2.47H19.9434C22.1664 2.47 23.9734 4.277 23.9734 6.5C23.9734 8.723 22.1664 10.53 19.9434 10.53H14.7434V13H19.9434C23.5314 13 26.4434 10.088 26.4434 6.5C26.4434 2.912 23.5314 0 19.9434 0Z" fill="white"/>
</svg>
