<svg width="58" height="57" viewBox="0 0 58 57" fill="none" xmlns="http://www.w3.org/2000/svg">
<path d="M56.5386 28.5004C56.5386 43.6885 44.2269 56.0008 29.0398 56.0008C13.8527 56.0008 1.54102 43.6885 1.54102 28.5004C1.54102 13.3123 13.8527 1 29.0398 1C44.2269 1 56.5386 13.3123 56.5386 28.5004Z" fill="url(#paint0_linear_1359_163)" fill-opacity="0.55"/>
<path d="M56.5386 28.5004C56.5386 43.6885 44.2269 56.0008 29.0398 56.0008C13.8527 56.0008 1.54102 43.6885 1.54102 28.5004C1.54102 13.3123 13.8527 1 29.0398 1C44.2269 1 56.5386 13.3123 56.5386 28.5004Z" stroke="black" stroke-width="2"/>
<path d="M56.5386 28.5004C56.5386 43.6885 44.2269 56.0008 29.0398 56.0008C13.8527 56.0008 1.54102 43.6885 1.54102 28.5004C1.54102 13.3123 13.8527 1 29.0398 1C44.2269 1 56.5386 13.3123 56.5386 28.5004Z" stroke="url(#paint1_linear_1359_163)" stroke-width="2"/>
<defs>
<linearGradient id="paint0_linear_1359_163" x1="2.45455" y1="17.821" x2="55.36" y2="39.0684" gradientUnits="userSpaceOnUse">
<stop stop-color="#800286"/>
<stop offset="0.175044" stop-color="#640584"/>
<stop offset="0.327543" stop-color="#590484"/>
<stop offset="0.520458" stop-color="#46158C"/>
<stop offset="0.719325" stop-color="#3A1F91"/>
<stop offset="0.884128" stop-color="#183594"/>
<stop offset="1" stop-color="#074096"/>
</linearGradient>
<linearGradient id="paint1_linear_1359_163" x1="2.45455" y1="17.821" x2="55.36" y2="39.0684" gradientUnits="userSpaceOnUse">
<stop stop-color="#800286"/>
<stop offset="0.175044" stop-color="#640584"/>
<stop offset="0.327543" stop-color="#590484"/>
<stop offset="0.520458" stop-color="#46158C"/>
<stop offset="0.719325" stop-color="#3A1F91"/>
<stop offset="0.884128" stop-color="#183594"/>
<stop offset="1" stop-color="#074096"/>
</linearGradient>
</defs>
</svg>
