<svg width="28" height="23" viewBox="0 0 28 23" fill="none" xmlns="http://www.w3.org/2000/svg">
<path d="M0.787216 20.1067C3.2902 21.7049 6.2032 22.5493 9.21084 22.5493C13.6153 22.5493 17.6514 20.8468 20.5768 17.7558C23.376 14.7975 24.9159 10.8223 24.8393 6.78828C25.9004 5.8747 27.1485 4.13027 27.1485 2.43005C27.1485 1.7783 26.4456 1.36458 25.8756 1.69669C24.8787 2.2861 23.9696 2.44025 23.0347 2.17615C21.1253 0.303641 18.2833 -0.0908109 15.8885 1.20816C13.7955 2.34164 12.6319 4.41591 12.7366 6.68287C9.2007 6.24875 5.93398 4.46465 3.65629 1.69215C3.28231 1.2399 2.57265 1.29317 2.27526 1.8055C1.1781 3.69615 1.18936 5.88717 2.14347 7.65653C1.68951 7.73701 1.40902 8.12126 1.40902 8.53724C1.40902 10.3157 2.20429 11.9502 3.48507 13.0655C3.24626 13.2967 3.16741 13.6402 3.26879 13.9462C3.83202 15.6487 5.10717 16.9794 6.7011 17.6459C4.96749 18.479 3.05026 18.7567 1.34368 18.5459C0.460544 18.4257 0.0246069 19.6204 0.787216 20.1067ZM9.44176 17.9372C10.0737 17.4487 9.73802 16.4308 8.94499 16.4138C7.54819 16.3843 6.27642 15.6918 5.48453 14.6025C5.8664 14.5776 6.26178 14.5186 6.63802 14.4166C7.49525 14.1831 7.45469 12.9386 6.58395 12.7629C5.00353 12.4432 3.76331 11.2848 3.29808 9.79314C3.72275 9.89856 4.15531 9.9575 4.58674 9.96543C5.44172 9.96996 5.76501 8.86709 5.06774 8.40576C3.49634 7.36409 2.8261 5.52445 3.26992 3.79476C6.01396 6.59219 9.73689 8.27768 13.675 8.4681C14.2393 8.50324 14.6629 7.96937 14.539 7.4287C14.0039 5.09486 15.2993 3.45925 16.6905 2.70549C18.067 1.95739 20.2771 1.72389 21.9713 3.51252C22.4748 4.04639 24.1735 4.0668 25.0375 3.8639C24.65 4.5984 24.0541 5.29549 23.4965 5.68767C23.2588 5.85543 23.1225 6.13427 23.1372 6.42557C23.3185 10.1491 21.9398 13.851 19.3546 16.5816C16.7502 19.3325 13.1489 20.848 9.21196 20.848C7.64619 20.848 6.11084 20.5918 4.65996 20.0976C6.3947 19.7598 8.0427 19.0208 9.44176 17.9372Z" fill="url(#paint0_linear_1359_167)"/>
<path d="M0.787216 20.1067C3.2902 21.7049 6.2032 22.5493 9.21084 22.5493C13.6153 22.5493 17.6514 20.8468 20.5768 17.7558C23.376 14.7975 24.9159 10.8223 24.8393 6.78828C25.9004 5.8747 27.1485 4.13027 27.1485 2.43005C27.1485 1.7783 26.4456 1.36458 25.8756 1.69669C24.8787 2.2861 23.9696 2.44025 23.0347 2.17615C21.1253 0.303641 18.2833 -0.0908109 15.8885 1.20816C13.7955 2.34164 12.6319 4.41591 12.7366 6.68287C9.2007 6.24875 5.93398 4.46465 3.65629 1.69215C3.28231 1.2399 2.57265 1.29317 2.27526 1.8055C1.1781 3.69615 1.18936 5.88717 2.14347 7.65653C1.68951 7.73701 1.40902 8.12126 1.40902 8.53724C1.40902 10.3157 2.20429 11.9502 3.48507 13.0655C3.24626 13.2967 3.16741 13.6402 3.26879 13.9462C3.83202 15.6487 5.10717 16.9794 6.7011 17.6459C4.96749 18.479 3.05026 18.7567 1.34368 18.5459C0.460544 18.4257 0.0246069 19.6204 0.787216 20.1067ZM9.44176 17.9372C10.0737 17.4487 9.73802 16.4308 8.94499 16.4138C7.54819 16.3843 6.27642 15.6918 5.48453 14.6025C5.8664 14.5776 6.26178 14.5186 6.63802 14.4166C7.49525 14.1831 7.45469 12.9386 6.58395 12.7629C5.00353 12.4432 3.76331 11.2848 3.29808 9.79314C3.72275 9.89856 4.15531 9.9575 4.58674 9.96543C5.44172 9.96996 5.76501 8.86709 5.06774 8.40576C3.49634 7.36409 2.8261 5.52445 3.26992 3.79476C6.01396 6.59219 9.73689 8.27768 13.675 8.4681C14.2393 8.50324 14.6629 7.96937 14.539 7.4287C14.0039 5.09486 15.2993 3.45925 16.6905 2.70549C18.067 1.95739 20.2771 1.72389 21.9713 3.51252C22.4748 4.04639 24.1735 4.0668 25.0375 3.8639C24.65 4.5984 24.0541 5.29549 23.4965 5.68767C23.2588 5.85543 23.1225 6.13427 23.1372 6.42557C23.3185 10.1491 21.9398 13.851 19.3546 16.5816C16.7502 19.3325 13.1489 20.848 9.21196 20.848C7.64619 20.848 6.11084 20.5918 4.65996 20.0976C6.3947 19.7598 8.0427 19.0208 9.44176 17.9372Z" fill="#FFFAEA"/>
<defs>
<linearGradient id="paint0_linear_1359_167" x1="-12.7392" y1="0.448243" x2="33.2289" y2="0.448243" gradientUnits="userSpaceOnUse">
<stop offset="0.456435" stop-color="#BC27EF"/>
<stop offset="1" stop-color="#2ECFFF"/>
</linearGradient>
</defs>
</svg>
