<svg width="332" height="216" viewBox="0 0 332 216" fill="none" xmlns="http://www.w3.org/2000/svg">
<path opacity="0.6" d="M166.265 113.096C191.877 113.096 212.639 101.111 212.639 86.3271C212.639 71.543 191.877 59.5581 166.265 59.5581C140.654 59.5581 119.892 71.543 119.892 86.3271C119.892 101.111 140.654 113.096 166.265 113.096Z" fill="#0C0F38"/>
<path d="M166.265 120.338C181.114 120.338 195.946 117.076 207.254 110.551C218.562 104.026 224.534 95.527 224.534 86.3267C224.534 77.1264 218.399 68.5296 207.254 62.1025C184.655 49.0524 147.875 49.0524 125.26 62.1025C114.115 68.5296 107.996 77.1427 107.996 86.3267C107.996 95.5107 114.115 104.124 125.26 110.567C136.404 117.011 151.416 120.338 166.265 120.338ZM166.265 54.2399C180.755 54.2399 195.245 57.4208 206.291 63.7827C216.8 69.851 222.609 77.8605 222.609 86.3267C222.609 94.7929 216.832 102.802 206.291 108.871C184.214 121.611 148.3 121.611 126.239 108.871C115.73 102.802 109.921 94.8092 109.921 86.3267C109.921 77.8441 115.714 69.851 126.239 63.7827C137.269 57.4208 151.759 54.2399 166.265 54.2399Z" fill="url(#paint0_linear_1272_4585)"/>
<path opacity="0.6" d="M49.7589 130.844L76.2093 115.608C79.4727 113.748 79.0159 110.502 75.2955 108.365L49.8242 93.6838C46.1202 91.5469 40.507 91.3185 37.2925 93.1618L10.8421 108.414C7.57869 110.274 8.03559 113.504 11.7559 115.641L37.2272 130.322C40.9313 132.475 46.5444 132.704 49.7589 130.844Z" fill="#0C0F38"/>
<path d="M44.4887 137.157C46.9125 137.218 49.3114 136.656 51.4562 135.526L83.7155 116.929C84.5514 116.537 85.2664 115.927 85.786 115.164C86.3055 114.4 86.6105 113.512 86.6689 112.59C86.6689 110.567 85.2004 108.545 82.6059 107.06L51.6031 89.1164C46.92 86.4085 39.773 86.1149 35.6774 88.4802L3.25489 107.011C2.41309 107.409 1.69437 108.027 1.17454 108.799C0.654716 109.572 0.353088 110.47 0.30146 111.399C0.30146 113.438 1.78632 115.461 4.36445 116.946L35.4489 134.889C38.2188 136.405 41.3311 137.186 44.4887 137.157ZM42.5633 88.1213C45.4693 88.1019 48.3327 88.8203 50.8851 90.2093L81.888 108.153C84.0582 109.409 85.2983 111.024 85.2983 112.574C85.2379 113.275 84.9912 113.947 84.5839 114.52C84.1765 115.094 83.6232 115.548 82.9812 115.836L50.7219 134.433C47.0016 136.586 40.4257 136.309 36.0363 133.813L5.03347 115.869C2.86327 114.613 1.62315 112.998 1.62315 111.432C1.68523 110.732 1.93253 110.06 2.33971 109.487C2.74687 108.914 3.29926 108.459 3.94021 108.17L36.1995 89.5732C38.1618 88.5535 40.3528 88.0537 42.5633 88.1213Z" fill="url(#paint1_linear_1272_4585)"/>
<path d="M8.68822 82.118H30.994L37.2109 78.5455C40.4743 76.6859 46.0385 76.9143 49.7425 79.0676L55.8942 82.64H78.3142V97.6639C78.3232 98.3711 78.1258 99.0656 77.7462 99.6624C77.3665 100.259 76.8211 100.733 76.1766 101.024L49.7262 116.277C46.4628 118.12 40.8986 117.908 37.1945 115.755L11.7232 101.073C10.9385 100.721 10.251 100.184 9.71955 99.5075C9.1881 98.8313 8.82862 98.0364 8.67191 97.1908L8.68822 82.118Z" fill="url(#paint2_linear_1272_4585)"/>
<path d="M11.7565 99.9808L37.2278 114.662C40.9318 116.815 46.5449 117.044 49.7594 115.184L76.2098 99.9482C76.8543 99.6565 77.3997 99.1833 77.7794 98.5864C78.159 97.9896 78.3564 97.2951 78.3474 96.5878V97.6155C78.3564 98.3228 78.159 99.0172 77.7794 99.6141C77.3997 100.211 76.8543 100.684 76.2098 100.976L49.7594 116.228C46.496 118.071 40.9318 117.859 37.2278 115.706L11.7565 101.025C10.9717 100.673 10.2842 100.135 9.75275 99.4591C9.2213 98.7829 8.86182 97.988 8.7051 97.1424V96.1147C8.86293 96.9579 9.22305 97.7501 9.75451 98.4235C10.286 99.0969 10.9729 99.6312 11.7565 99.9808Z" fill="url(#paint3_linear_1272_4585)"/>
<path d="M76.9435 98.7079V83.6677H54.5562L48.4045 80.0952C44.7005 77.9583 39.0874 77.7299 35.8892 79.5732L29.6723 83.1457H8.68822V82.118H30.994L37.2109 78.5455C40.4743 76.6859 46.0385 76.9143 49.7426 79.0676L55.8942 82.64H78.3142V97.6639C78.3232 98.3711 78.1258 99.0656 77.7462 99.6624C77.3665 100.259 76.8211 100.733 76.1766 101.024L75.9155 101.171C76.2569 100.861 76.5259 100.479 76.7035 100.054C76.8812 99.6281 76.9631 99.1687 76.9435 98.7079Z" fill="#D4088C"/>
<path d="M49.7599 101.172L76.2103 85.9356C79.4737 84.076 79.0168 80.8461 75.2965 78.6928L49.8252 64.0115C46.1211 61.8745 40.508 61.6461 37.2935 63.4895L10.8431 78.7417C7.57967 80.6014 8.03657 83.8313 11.7569 85.9682L37.2282 100.65C40.9323 102.803 46.5454 103.096 49.7599 101.172Z" fill="url(#paint4_linear_1272_4585)"/>
<path d="M10.8438 78.7577L37.2941 63.5054C39.2495 62.5176 41.4434 62.0993 43.6252 62.2983C42.0304 62.3487 40.4679 62.7615 39.0564 63.5054L12.6224 78.7577C9.3589 80.6174 9.81577 83.8472 13.5198 85.9842L39.0074 100.666C40.9125 101.716 43.0344 102.314 45.208 102.411C42.4367 102.595 39.67 101.99 37.2289 100.666L11.7575 85.9842C8.0372 83.8472 7.64557 80.6174 10.8438 78.7577Z" fill="#6EE8FC"/>
<path d="M47.7364 101.171L74.1704 85.9354C77.4339 84.0757 76.9933 80.8458 73.2729 78.6926L47.8016 64.0113C45.9235 62.9832 43.8374 62.3921 41.699 62.2821C44.5281 62.0638 47.3604 62.6641 49.8576 64.0113L75.3289 78.6926C79.0493 80.8458 79.4409 84.0757 76.2427 85.9354L49.7597 101.171C47.7765 102.181 45.5464 102.606 43.3307 102.395C44.8715 102.317 46.376 101.899 47.7364 101.171Z" fill="#D4088C"/>
<path opacity="0.6" d="M172.499 208.704L198.933 193.452C202.197 191.592 201.74 188.362 198.036 186.225L172.548 171.544C168.844 169.391 163.247 169.162 160.033 171.022L133.583 186.274C130.319 188.118 130.776 191.364 134.48 193.501L159.968 208.182C163.672 210.319 169.285 210.547 172.499 208.704Z" fill="#0C0F38"/>
<path d="M167.229 215.001C169.648 215.061 172.041 214.5 174.18 213.369L206.391 194.806C207.234 194.409 207.955 193.791 208.478 193.019C209.001 192.247 209.305 191.348 209.36 190.418C209.36 188.379 207.875 186.356 205.297 184.871L174.213 166.927C169.513 164.22 162.383 163.942 158.287 166.308L126.028 184.904C125.209 185.312 124.513 185.931 124.012 186.696C123.51 187.461 123.22 188.346 123.172 189.259C123.172 191.282 124.657 193.305 127.235 194.806L158.32 212.749C161.051 214.242 164.117 215.016 167.229 215.001ZM165.287 165.932C168.199 165.905 171.07 166.624 173.625 168.02L204.759 185.997C206.929 187.253 208.169 188.868 208.169 190.434C208.107 191.134 207.86 191.806 207.453 192.379C207.045 192.952 206.493 193.407 205.852 193.696L173.593 212.293C169.856 214.446 163.297 214.152 158.907 211.657L127.823 193.713C125.653 192.457 124.396 190.842 124.396 189.292C124.46 188.59 124.709 187.917 125.12 187.344C125.53 186.77 126.085 186.317 126.729 186.029L158.989 167.433C160.924 166.399 163.094 165.882 165.287 165.932Z" fill="url(#paint5_linear_1272_4585)"/>
<path d="M131.331 159.897H153.816L160.033 156.324C163.297 154.481 168.845 154.693 172.549 156.846L178.651 160.484H201.088V175.524C201.097 176.233 200.898 176.93 200.515 177.528C200.133 178.125 199.582 178.597 198.934 178.884L172.5 194.12C169.236 195.98 163.672 195.752 159.968 193.598L134.48 178.917C133.697 178.567 133.01 178.033 132.478 177.36C131.947 176.686 131.587 175.894 131.429 175.051L131.331 159.897Z" fill="url(#paint6_linear_1272_4585)"/>
<path d="M134.48 177.84L159.968 192.522C163.672 194.659 169.285 194.887 172.5 193.044L198.934 177.84C199.582 177.553 200.133 177.081 200.515 176.484C200.898 175.886 201.097 175.189 201.088 174.48V175.524C201.097 176.233 200.898 176.93 200.515 177.528C200.133 178.125 199.582 178.597 198.934 178.884L172.5 194.12C169.236 195.98 163.672 195.752 159.968 193.598L134.48 178.917C133.697 178.567 133.01 178.033 132.478 177.36C131.947 176.686 131.587 175.894 131.429 175.051V174.007C131.593 174.844 131.956 175.629 132.487 176.296C133.018 176.963 133.702 177.493 134.48 177.84Z" fill="url(#paint7_linear_1272_4585)"/>
<path d="M199.668 176.552V161.528H177.281L171.129 157.955C167.425 155.818 161.812 155.574 158.597 157.433L152.38 161.006H131.331V159.897H153.816L160.033 156.324C163.297 154.481 168.845 154.693 172.549 156.846L178.651 160.484H201.088V175.524C201.097 176.233 200.898 176.93 200.515 177.528C200.133 178.125 199.582 178.597 198.934 178.884L198.689 179.031C199.018 178.71 199.275 178.323 199.443 177.896C199.612 177.469 199.689 177.011 199.668 176.552Z" fill="#D4088C"/>
<path d="M172.499 179.097L198.933 163.844C202.197 162.001 201.74 158.755 198.036 156.618L172.548 141.937C168.844 139.8 163.247 139.555 160.033 141.415L133.583 156.634C130.319 158.478 130.776 161.724 134.48 163.861L159.968 178.542C163.672 180.712 169.285 180.94 172.499 179.097Z" fill="url(#paint8_linear_1272_4585)"/>
<path d="M133.583 156.634L160.033 141.382C161.981 140.389 164.17 139.965 166.348 140.158C164.757 140.211 163.199 140.63 161.795 141.382L135.345 156.634C132.082 158.477 132.538 161.723 136.259 163.86L161.73 178.542C163.639 179.583 165.759 180.179 167.931 180.287C165.165 180.464 162.406 179.859 159.968 178.542L134.48 163.86C130.776 161.707 130.368 158.461 133.583 156.634Z" fill="#6EE8FC"/>
<path d="M170.492 179.096L196.942 163.844C200.206 162.001 199.749 158.755 196.045 156.618L170.492 141.953C168.617 140.917 166.529 140.326 164.389 140.224C167.219 140 170.052 140.6 172.548 141.953L198.035 156.634C201.739 158.771 202.147 162.017 198.933 163.86L172.499 179.113C170.513 180.115 168.284 180.533 166.07 180.32C167.617 180.247 169.127 179.829 170.492 179.096Z" fill="#D4088C"/>
<path d="M166.265 169.26C157.614 169.26 150.6 165.214 150.6 160.223C150.6 155.232 157.614 151.186 166.265 151.186C174.916 151.186 181.93 155.232 181.93 160.223C181.93 165.214 174.916 169.26 166.265 169.26Z" fill="#73FFF5"/>
<path d="M177.328 156.438C173.897 154.699 170.104 153.792 166.257 153.792C162.41 153.792 158.617 154.699 155.186 156.438C154.149 156.95 153.225 157.664 152.468 158.538C151.711 159.412 151.137 160.428 150.78 161.528C150.095 158.804 151.563 155.933 155.186 153.845C158.617 152.105 162.41 151.198 166.257 151.198C170.104 151.198 173.897 152.105 177.328 153.845C180.967 155.933 182.419 158.738 181.734 161.528C181.38 160.427 180.807 159.409 180.05 158.534C179.293 157.66 178.367 156.947 177.328 156.438Z" fill="#267FE5"/>
<g opacity="0.2">
<path d="M151 80H182V158.702C181.994 158.925 181.933 159.143 181.823 159.335C181.712 159.527 181.371 161.409 181.371 159.798L179.782 163.907L176.904 166.404L172.107 168.402L168.199 168.842C167.632 169.158 167.473 168.874 166.83 168.842C166.187 168.81 163.529 169.213 162.993 168.842L159.155 167.403L154.358 165.405L152.919 162.908L151.959 160.91C151.72 160.77 151.515 159.643 151.359 159.407C151.204 159.172 151.102 158.903 151.063 158.62L151 80Z" fill="url(#paint9_linear_1272_4585)" style="mix-blend-mode:lighten"/>
</g>
<g opacity="0.25">
<path d="M151.543 87.5156H180.787V158.822C180.782 159.023 180.725 159.219 180.621 159.391C180.518 159.563 181.425 165.196 180.621 163L179.5 164.5L167.78 167.991C167.244 168.273 166.641 168.407 166.036 168.378C165.43 168.349 164.843 168.159 164.336 167.827L162 168.378L155.5 167L152 163.5L151 161.5C149.604 162.048 151.978 159.655 151.833 159.445C151.688 159.235 151.594 158.993 151.559 158.74L151.543 87.5156Z" fill="url(#paint10_linear_1272_4585)" style="mix-blend-mode:lighten"/>
</g>
<path opacity="0.6" d="M295.012 127.271L321.463 112.035C324.726 110.176 324.269 106.946 320.565 104.809L295.078 90.1275C291.374 87.9905 285.76 87.7621 282.562 89.6218L256.112 104.858C252.848 106.717 253.305 109.947 257.009 112.084L282.497 126.766C286.201 128.902 291.814 129.115 295.012 127.271Z" fill="#0C0F38"/>
<path d="M289.758 133.568C292.177 133.626 294.57 133.065 296.709 131.936L328.969 113.34C329.811 112.941 330.532 112.324 331.054 111.552C331.576 110.78 331.882 109.882 331.938 108.952C331.938 106.913 330.454 104.89 327.875 103.406L296.873 85.4618C292.173 82.7539 285.026 82.4766 280.947 84.8256L248.688 103.422C247.845 103.821 247.125 104.438 246.602 105.21C246.08 105.982 245.774 106.88 245.718 107.81C245.718 109.849 247.203 111.872 249.781 113.356L280.865 131.3C283.593 132.789 286.651 133.569 289.758 133.568ZM287.816 84.4994C290.721 84.4721 293.585 85.185 296.138 86.571L327.223 104.515C329.409 105.771 330.649 107.386 330.649 108.952C330.587 109.652 330.34 110.324 329.933 110.897C329.526 111.47 328.973 111.925 328.332 112.214L296.073 130.827C292.336 132.98 285.76 132.687 281.387 130.191L250.385 112.247C248.198 110.991 246.958 109.376 246.958 107.81C247.02 107.11 247.267 106.438 247.675 105.865C248.082 105.292 248.634 104.837 249.275 104.548L281.534 85.9512C283.471 84.9417 285.633 84.442 287.816 84.4994Z" fill="url(#paint11_linear_1272_4585)"/>
<path d="M253.941 78.5286H276.345L282.562 74.9562C285.825 73.0966 291.373 73.3249 295.077 75.4782L301.245 79.0507H323.616V94.0909C323.611 94.7846 323.405 95.462 323.023 96.041C322.64 96.62 322.098 97.0759 321.462 97.3534L295.012 112.606C291.749 114.465 286.201 114.237 282.497 112.084L257.009 97.4023C256.223 97.0512 255.535 96.5143 255.004 95.8379C254.472 95.1615 254.113 94.366 253.958 93.5199L253.941 78.5286Z" fill="url(#paint12_linear_1272_4585)"/>
<path d="M257.011 96.3912L282.498 111.073C286.202 113.209 291.815 113.438 295.014 111.578L321.464 96.3423C322.113 96.0547 322.663 95.5829 323.046 94.9854C323.429 94.388 323.628 93.6913 323.618 92.9819V94.0258C323.613 94.7196 323.406 95.397 323.024 95.976C322.642 96.555 322.1 97.0109 321.464 97.2884L295.014 112.541C291.75 114.4 286.202 114.172 282.498 112.019L257.011 97.3373C256.225 96.9862 255.537 96.4493 255.005 95.7729C254.474 95.0965 254.115 94.3009 253.959 93.4549V92.4272C254.102 93.288 254.456 94.1001 254.988 94.7915C255.52 95.483 256.215 96.0325 257.011 96.3912Z" fill="url(#paint13_linear_1272_4585)"/>
<path d="M322.197 95.1186V80.0946H299.76L293.609 76.5059C289.905 74.369 284.291 74.1406 281.077 76.0002L274.86 79.5727H253.876V78.5286H276.345L282.562 74.9562C285.825 73.0966 291.373 73.3249 295.077 75.4782L301.245 79.0507H323.616V94.0909C323.611 94.7846 323.405 95.462 323.023 96.041C322.64 96.62 322.098 97.0759 321.462 97.3534L321.218 97.5002C321.54 97.1952 321.794 96.8252 321.963 96.4146C322.132 96.004 322.212 95.5622 322.197 95.1186Z" fill="#D4088C"/>
<path d="M295.012 97.6635L321.463 82.4112C324.726 80.5516 324.269 77.3217 320.565 75.1848L295.078 60.5034C291.374 58.3665 285.76 58.1381 282.562 59.9978L256.112 75.2337C252.848 77.0933 253.305 80.3232 257.009 82.4765L282.497 97.1578C286.201 99.2784 291.814 99.5394 295.012 97.6635Z" fill="url(#paint14_linear_1272_4585)"/>
<path d="M256.113 75.1688L282.563 59.9328C284.512 58.9407 286.7 58.5167 288.878 58.7094C287.287 58.7627 285.729 59.1813 284.326 59.9328L257.875 75.1688C254.612 77.0284 255.069 80.2583 258.773 82.4116L284.26 97.0929C286.168 98.1363 288.289 98.7279 290.461 98.822C287.697 99.0081 284.936 98.4086 282.498 97.0929L257.01 82.4116C253.306 80.2583 252.899 77.0284 256.113 75.1688Z" fill="#6EE8FC"/>
<path d="M292.989 97.6635L319.439 82.4112C322.703 80.5516 322.246 77.3217 318.542 75.1848L293.054 60.5034C291.173 59.4825 289.089 58.892 286.952 58.7743C289.781 58.5504 292.615 59.151 295.11 60.5034L320.598 75.1848C324.302 77.3217 324.71 80.5516 321.495 82.4112L295.045 97.6635C293.063 98.6589 290.841 99.0772 288.632 98.8706C290.156 98.7932 291.643 98.3811 292.989 97.6635Z" fill="#D4088C"/>
<path d="M277.716 85.1844C281.148 86.9241 284.941 87.8308 288.788 87.8308C292.635 87.8308 296.428 86.9241 299.859 85.1844C305.978 81.6446 305.978 75.9352 299.859 72.3953C296.428 70.6556 292.635 69.749 288.788 69.749C284.941 69.749 281.148 70.6556 277.716 72.3953C271.597 75.9352 271.597 81.5957 277.716 85.1844Z" fill="#73FFF5"/>
<path d="M299.858 75.0708C296.427 73.3311 292.634 72.4245 288.787 72.4245C284.94 72.4245 281.147 73.3311 277.716 75.0708C276.679 75.5823 275.755 76.2962 274.998 77.1702C274.242 78.0443 273.668 79.061 273.31 80.1603C272.625 77.4361 274.077 74.5651 277.716 72.4608C281.147 70.7211 284.94 69.8145 288.787 69.8145C292.634 69.8145 296.427 70.7211 299.858 72.4608C303.497 74.5651 304.949 77.4361 304.264 80.1603C303.907 79.061 303.333 78.0443 302.576 77.1702C301.819 76.2962 300.895 75.5823 299.858 75.0708Z" fill="#267FE5"/>
<path style="mix-blend-mode:lighten" opacity="0.2" d="M305.004 0H273.004V77.5935C273.011 77.811 273.075 78.0229 273.189 78.2091C273.303 78.3952 273.463 78.5493 273.654 78.6566L287.25 87.5806C287.838 87.8837 288.496 88.0269 289.158 87.9958C289.82 87.9647 290.462 87.7603 291.018 87.4034L304.013 78.8338C304.261 78.7006 304.473 78.5118 304.634 78.2825C304.795 78.0531 304.899 77.7895 304.939 77.5129L305.004 0Z" fill="url(#paint15_linear_1272_4585)"/>
<path style="mix-blend-mode:lighten" opacity="0.25" d="M303.339 6.5H274.261V77.6065C274.27 77.8058 274.328 77.9998 274.43 78.1709C274.533 78.3419 274.677 78.4844 274.849 78.5853L287.201 86.7416C287.737 87.0242 288.339 87.1582 288.945 87.1295C289.55 87.1008 290.137 86.9105 290.644 86.5784L302.507 78.7321C302.728 78.6033 302.918 78.4265 303.062 78.2148C303.206 78.0031 303.3 77.7618 303.339 77.5087V6.5Z" fill="url(#paint16_linear_1272_4585)"/>
<path d="M279.96 60.4484C275.09 55.5794 275.09 47.6852 279.96 42.8162C284.831 37.9473 292.727 37.9473 297.597 42.8162C302.468 47.6852 302.468 55.5794 297.597 60.4484C292.727 65.3174 284.831 65.3174 279.96 60.4484Z" fill="#6DE0F6"/>
<path d="M279.96 60.4484C275.09 55.5794 275.09 47.6852 279.96 42.8162C284.831 37.9473 292.727 37.9473 297.597 42.8162C302.468 47.6852 302.468 55.5794 297.597 60.4484C292.727 65.3174 284.831 65.3174 279.96 60.4484Z" fill="url(#paint17_linear_1272_4585)"/>
<path opacity="0.44" d="M288.653 63C294.171 63 298.653 59.4188 298.653 54.9904C298.653 50.562 294.171 47 288.653 47C283.136 47 278.653 50.5813 278.653 54.9904C278.653 59.3995 283.136 63 288.653 63Z" fill="url(#paint18_linear_1272_4585)"/>
<defs>
<linearGradient id="paint0_linear_1272_4585" x1="224.534" y1="86.3267" x2="107.996" y2="86.3267" gradientUnits="userSpaceOnUse">
<stop stop-color="#D4088C"/>
<stop offset="0.23" stop-color="#D4088C"/>
<stop offset="0.51" stop-color="#6EE1F8"/>
<stop offset="0.78" stop-color="#6EE8FC"/>
<stop offset="1" stop-color="#6EE8FC"/>
</linearGradient>
<linearGradient id="paint1_linear_1272_4585" x1="86.6689" y1="111.987" x2="0.383049" y2="111.987" gradientUnits="userSpaceOnUse">
<stop stop-color="#D4088C"/>
<stop offset="0.23" stop-color="#D4088C"/>
<stop offset="0.51" stop-color="#6EE1F8"/>
<stop offset="0.78" stop-color="#6EE8FC"/>
<stop offset="1" stop-color="#6EE8FC"/>
</linearGradient>
<linearGradient id="paint2_linear_1272_4585" x1="84.9553" y1="97.4029" x2="0.0563707" y2="97.4029" gradientUnits="userSpaceOnUse">
<stop stop-color="#A31FA9"/>
<stop offset="0.07" stop-color="#8B17A0"/>
<stop offset="0.15" stop-color="#740F98"/>
<stop offset="0.24" stop-color="#640A92"/>
<stop offset="0.34" stop-color="#5B078F"/>
<stop offset="0.48" stop-color="#58068E"/>
<stop offset="0.63" stop-color="#4D22A3"/>
<stop offset="0.94" stop-color="#3168DA"/>
<stop offset="1" stop-color="#2C75E4"/>
</linearGradient>
<linearGradient id="paint3_linear_1272_4585" x1="84.9559" y1="106.816" x2="0.0569303" y2="106.816" gradientUnits="userSpaceOnUse">
<stop stop-color="#D4088C"/>
<stop offset="0.23" stop-color="#D4088C"/>
<stop offset="0.51" stop-color="#6EE1F8"/>
<stop offset="0.78" stop-color="#6EE8FC"/>
<stop offset="1" stop-color="#6EE8FC"/>
</linearGradient>
<linearGradient id="paint4_linear_1272_4585" x1="78.8762" y1="84.166" x2="13.3681" y2="100.131" gradientUnits="userSpaceOnUse">
<stop stop-color="#8D139B"/>
<stop offset="0.17" stop-color="#851BA1"/>
<stop offset="0.43" stop-color="#6E33B2"/>
<stop offset="0.76" stop-color="#4958CD"/>
<stop offset="1" stop-color="#2979E4"/>
</linearGradient>
<linearGradient id="paint5_linear_1272_4585" x1="209.409" y1="189.83" x2="123.107" y2="189.83" gradientUnits="userSpaceOnUse">
<stop stop-color="#D4088C"/>
<stop offset="0.23" stop-color="#D4088C"/>
<stop offset="0.51" stop-color="#6EE1F8"/>
<stop offset="0.78" stop-color="#6EE8FC"/>
<stop offset="1" stop-color="#6EE8FC"/>
</linearGradient>
<linearGradient id="paint6_linear_1272_4585" x1="207.696" y1="175.263" x2="122.797" y2="175.263" gradientUnits="userSpaceOnUse">
<stop stop-color="#A31FA9"/>
<stop offset="0.07" stop-color="#8B17A0"/>
<stop offset="0.15" stop-color="#740F98"/>
<stop offset="0.24" stop-color="#640A92"/>
<stop offset="0.34" stop-color="#5B078F"/>
<stop offset="0.48" stop-color="#58068E"/>
<stop offset="0.63" stop-color="#4D22A3"/>
<stop offset="0.94" stop-color="#3168DA"/>
<stop offset="1" stop-color="#2C75E4"/>
</linearGradient>
<linearGradient id="paint7_linear_1272_4585" x1="207.696" y1="184.675" x2="122.797" y2="184.675" gradientUnits="userSpaceOnUse">
<stop stop-color="#D4088C"/>
<stop offset="0.23" stop-color="#D4088C"/>
<stop offset="0.51" stop-color="#6EE1F8"/>
<stop offset="0.78" stop-color="#6EE8FC"/>
<stop offset="1" stop-color="#6EE8FC"/>
</linearGradient>
<linearGradient id="paint8_linear_1272_4585" x1="201.02" y1="162.044" x2="135.491" y2="177.965" gradientUnits="userSpaceOnUse">
<stop stop-color="#8D139B"/>
<stop offset="0.17" stop-color="#851BA1"/>
<stop offset="0.43" stop-color="#6E33B2"/>
<stop offset="0.76" stop-color="#4958CD"/>
<stop offset="1" stop-color="#2979E4"/>
</linearGradient>
<linearGradient id="paint9_linear_1272_4585" x1="166.5" y1="169.302" x2="166.5" y2="89.3516" gradientUnits="userSpaceOnUse">
<stop offset="0.01" stop-color="#70E8FC"/>
<stop offset="0.107902" stop-color="#00F0FF"/>
<stop offset="0.245616" stop-color="#00ABFF"/>
<stop offset="0.461686" stop-color="#17669F" stop-opacity="0.389776"/>
<stop offset="1" stop-color="#253A62" stop-opacity="0"/>
</linearGradient>
<linearGradient id="paint10_linear_1272_4585" x1="166.165" y1="168.401" x2="166.165" y2="90.5" gradientUnits="userSpaceOnUse">
<stop offset="0.01" stop-color="#70E8FC"/>
<stop offset="0.107902" stop-color="#00F0FF"/>
<stop offset="0.245616" stop-color="#00ABFF"/>
<stop offset="0.556552" stop-color="#17669F" stop-opacity="0.389776"/>
<stop offset="1" stop-color="#253A62" stop-opacity="0"/>
</linearGradient>
<linearGradient id="paint11_linear_1272_4585" x1="331.938" y1="108.397" x2="245.636" y2="108.397" gradientUnits="userSpaceOnUse">
<stop stop-color="#D4088C"/>
<stop offset="0.23" stop-color="#D4088C"/>
<stop offset="0.51" stop-color="#6EE1F8"/>
<stop offset="0.78" stop-color="#6EE8FC"/>
<stop offset="1" stop-color="#6EE8FC"/>
</linearGradient>
<linearGradient id="paint12_linear_1272_4585" x1="330.225" y1="93.8298" x2="245.326" y2="93.8298" gradientUnits="userSpaceOnUse">
<stop stop-color="#A31FA9"/>
<stop offset="0.07" stop-color="#8B17A0"/>
<stop offset="0.15" stop-color="#740F98"/>
<stop offset="0.24" stop-color="#640A92"/>
<stop offset="0.34" stop-color="#5B078F"/>
<stop offset="0.48" stop-color="#58068E"/>
<stop offset="0.63" stop-color="#4D22A3"/>
<stop offset="0.94" stop-color="#3168DA"/>
<stop offset="1" stop-color="#2C75E4"/>
</linearGradient>
<linearGradient id="paint13_linear_1272_4585" x1="330.226" y1="103.226" x2="245.327" y2="103.226" gradientUnits="userSpaceOnUse">
<stop stop-color="#D4088C"/>
<stop offset="0.23" stop-color="#D4088C"/>
<stop offset="0.51" stop-color="#6EE1F8"/>
<stop offset="0.78" stop-color="#6EE8FC"/>
<stop offset="1" stop-color="#6EE8FC"/>
</linearGradient>
<linearGradient id="paint14_linear_1272_4585" x1="323.581" y1="80.2616" x2="258.078" y2="96.2028" gradientUnits="userSpaceOnUse">
<stop stop-color="#8D139B"/>
<stop offset="0.17" stop-color="#851BA1"/>
<stop offset="0.43" stop-color="#6E33B2"/>
<stop offset="0.76" stop-color="#4958CD"/>
<stop offset="1" stop-color="#2979E4"/>
</linearGradient>
<linearGradient id="paint15_linear_1272_4585" x1="289.004" y1="87.935" x2="289.004" y2="0" gradientUnits="userSpaceOnUse">
<stop offset="0.01" stop-color="#25BFEC"/>
<stop offset="0.05" stop-color="#24B4E1"/>
<stop offset="0.22" stop-color="#1F83B0"/>
<stop offset="0.39" stop-color="#1B5A86"/>
<stop offset="0.56" stop-color="#173A66"/>
<stop offset="0.72" stop-color="#152350"/>
<stop offset="0.87" stop-color="#131642"/>
<stop offset="1" stop-color="#13113D"/>
</linearGradient>
<linearGradient id="paint16_linear_1272_4585" x1="289.077" y1="88.0717" x2="289.502" y2="-4.12403" gradientUnits="userSpaceOnUse">
<stop offset="0.01" stop-color="#70E8FC"/>
<stop offset="0.15" stop-color="#5AB5CF"/>
<stop offset="0.402062" stop-color="#4584A3"/>
<stop offset="0.517253" stop-color="#335A7E"/>
<stop offset="0.6" stop-color="#253A62"/>
<stop offset="0.75" stop-color="#1B244D"/>
<stop offset="0.88" stop-color="#151641"/>
<stop offset="1" stop-color="#13113D"/>
</linearGradient>
<linearGradient id="paint17_linear_1272_4585" x1="300.31" y1="56.553" x2="277.366" y2="46.7553" gradientUnits="userSpaceOnUse">
<stop stop-color="#FF83CB"/>
<stop offset="0.34" stop-color="#B444F9"/>
<stop offset="1" stop-color="#35D7FB"/>
</linearGradient>
<linearGradient id="paint18_linear_1272_4585" x1="288.127" y1="64.1429" x2="287.583" y2="49.2863" gradientUnits="userSpaceOnUse">
<stop offset="0.077034" stop-color="#73FFF5"/>
<stop offset="0.586611" stop-color="#73FFF5" stop-opacity="0"/>
</linearGradient>
</defs>
</svg>
