<svg width="110" height="125" viewBox="0 0 110 125" fill="none" xmlns="http://www.w3.org/2000/svg">
<path opacity="0.8" d="M55.9979 53.5057C45.0758 53.5057 34.1538 50.9806 25.8446 45.9474C17.5354 40.9143 13.1211 34.2943 13.1211 27.1796C13.1211 20.0649 17.649 13.3938 25.8446 8.4118C42.463 -1.6887 69.5328 -1.6887 86.1512 8.4118C94.363 13.3938 98.8746 20.0479 98.8746 27.1796C98.8746 34.3114 94.363 40.9825 86.1512 45.9474C77.842 50.9806 66.9199 53.5057 55.9979 53.5057ZM55.9979 2.42314C45.3517 2.42314 34.7218 4.88003 26.6236 9.79379C18.9148 14.4687 14.6791 20.645 14.6791 27.1625C14.6791 33.6801 18.9148 39.8565 26.6236 44.5314C42.8525 54.3589 69.1757 54.3589 85.3884 44.5314C93.0809 39.8565 97.3329 33.6972 97.3329 27.1625C97.3329 20.6279 93.1296 14.4346 85.3884 9.79379C77.2902 4.88003 66.644 2.4914 55.9979 2.4914V2.42314Z" fill="#FF2C9C"/>
<g opacity="0.7">
<path d="M8.90254 47.4658C8.90254 48.6423 8.45796 49.7707 7.66665 50.6026C6.87534 51.4345 5.8021 51.9018 4.68301 51.9018C4.12753 51.9041 3.5771 51.791 3.06329 51.5691C2.54948 51.3472 2.08241 51.0208 1.68888 50.6086C1.29534 50.1965 0.983071 49.7067 0.770006 49.1674C0.556942 48.6281 0.447262 48.0498 0.447266 47.4658C0.447262 46.8818 0.556942 46.3036 0.770006 45.7643C0.983071 45.225 1.29534 44.7352 1.68888 44.323C2.08241 43.9109 2.54948 43.5845 3.06329 43.3626C3.5771 43.1407 4.12753 43.0276 4.68301 43.0298C5.8021 43.0298 6.87534 43.4972 7.66665 44.3291C8.45796 45.161 8.90254 46.2893 8.90254 47.4658Z" fill="#6DE0F6"/>
<path d="M8.90254 47.4658C8.90254 48.6423 8.45796 49.7707 7.66665 50.6026C6.87534 51.4345 5.8021 51.9018 4.68301 51.9018C4.12753 51.9041 3.5771 51.791 3.06329 51.5691C2.54948 51.3472 2.08241 51.0208 1.68888 50.6086C1.29534 50.1965 0.983071 49.7067 0.770006 49.1674C0.556942 48.6281 0.447262 48.0498 0.447266 47.4658C0.447262 46.8818 0.556942 46.3036 0.770006 45.7643C0.983071 45.225 1.29534 44.7352 1.68888 44.323C2.08241 43.9109 2.54948 43.5845 3.06329 43.3626C3.5771 43.1407 4.12753 43.0276 4.68301 43.0298C5.8021 43.0298 6.87534 43.4972 7.66665 44.3291C8.45796 45.161 8.90254 46.2893 8.90254 47.4658Z" fill="url(#paint0_linear_705_1396)"/>
</g>
<path d="M49.9852 17.6881C49.9852 19.4635 49.3155 21.1664 48.1229 22.4234C46.9303 23.6804 45.3122 24.3888 43.6235 24.3934C42.7867 24.3934 41.9581 24.2198 41.1852 23.8826C40.4123 23.5454 39.7103 23.0513 39.1193 22.4284C38.5284 21.8056 38.0601 21.0663 37.7413 20.2529C37.4226 19.4394 37.2596 18.5679 37.2617 17.6881C37.2617 15.9143 37.932 14.2132 39.1251 12.9589C40.3181 11.7046 41.9362 11 43.6235 11C45.3094 11.0045 46.925 11.7106 48.1172 12.9639C49.3093 14.2172 49.9809 15.9157 49.9852 17.6881Z" fill="#6DE0F6"/>
<path d="M49.9852 17.6881C49.9852 19.4635 49.3155 21.1664 48.1229 22.4234C46.9303 23.6804 45.3122 24.3888 43.6235 24.3934C42.7867 24.3934 41.9581 24.2198 41.1852 23.8826C40.4123 23.5454 39.7103 23.0513 39.1193 22.4284C38.5284 21.8056 38.0601 21.0663 37.7413 20.2529C37.4226 19.4394 37.2596 18.5679 37.2617 17.6881C37.2617 15.9143 37.932 14.2132 39.1251 12.9589C40.3181 11.7046 41.9362 11 43.6235 11C45.3094 11.0045 46.925 11.7106 48.1172 12.9639C49.3093 14.2172 49.9809 15.9157 49.9852 17.6881Z" fill="url(#paint1_linear_705_1396)"/>
<path opacity="0.5" d="M55.9987 41.9894C45.3363 41.9894 34.6576 44.4633 26.5432 49.3941C18.7858 54.0861 14.5176 60.3136 14.5176 66.8994C14.5176 73.4852 18.7858 79.6957 26.5432 84.4047C42.7721 94.2663 69.2252 94.2663 85.4704 84.4047C93.2116 79.6957 97.4797 73.4852 97.4797 66.8994C97.4797 60.3136 93.2116 54.0861 85.4541 49.3941C77.3397 44.4633 66.661 41.9894 55.9987 41.9894ZM55.9987 93.072C45.1091 93.072 34.2195 90.5639 25.9265 85.5308C17.6335 80.4976 13.2842 73.9629 13.2842 66.8994C13.2842 59.8359 17.7633 53.25 25.9265 48.268C42.5124 38.2017 69.5011 38.2017 86.0871 48.268C94.2015 53.2159 98.7294 59.8359 98.7294 66.8994C98.7294 73.9629 94.234 80.5487 86.0871 85.5308C77.7941 90.5639 66.8883 93.072 55.9987 93.072Z" fill="#FF2C9C"/>
<path d="M27.401 31.2209C28.7723 31.2209 29.884 30.0521 29.884 28.6104C29.884 27.1687 28.7723 26 27.401 26C26.0297 26 24.918 27.1687 24.918 28.6104C24.918 30.0521 26.0297 31.2209 27.401 31.2209Z" fill="#6DE0F6"/>
<path d="M27.401 31.2209C28.7723 31.2209 29.884 30.0521 29.884 28.6104C29.884 27.1687 28.7723 26 27.401 26C26.0297 26 24.918 27.1687 24.918 28.6104C24.918 30.0521 26.0297 31.2209 27.401 31.2209Z" fill="url(#paint2_linear_705_1396)"/>
<path d="M109.602 53.4715C109.604 53.8426 109.537 54.2105 109.403 54.554C109.269 54.8975 109.073 55.2099 108.824 55.4731C108.575 55.7363 108.279 55.9452 107.953 56.0878C107.627 56.2303 107.277 56.3037 106.924 56.3037C106.571 56.3037 106.22 56.2304 105.894 56.0881C105.567 55.9458 105.27 55.7372 105.02 55.4742C104.769 55.2112 104.571 54.8989 104.436 54.5553C104.3 54.2117 104.23 53.8434 104.23 53.4715C104.23 53.1003 104.3 52.7328 104.436 52.3902C104.571 52.0475 104.77 51.7364 105.02 51.4748C105.271 51.2131 105.568 51.0061 105.895 50.8657C106.221 50.7252 106.571 50.6541 106.924 50.6563C107.635 50.6563 108.316 50.9529 108.818 51.4809C109.32 52.0088 109.602 52.7248 109.602 53.4715Z" fill="#6DE0F6"/>
<path d="M109.602 53.4715C109.604 53.8426 109.537 54.2105 109.403 54.554C109.269 54.8975 109.073 55.2099 108.824 55.4731C108.575 55.7363 108.279 55.9452 107.953 56.0878C107.627 56.2303 107.277 56.3037 106.924 56.3037C106.571 56.3037 106.22 56.2304 105.894 56.0881C105.567 55.9458 105.27 55.7372 105.02 55.4742C104.769 55.2112 104.571 54.8989 104.436 54.5553C104.3 54.2117 104.23 53.8434 104.23 53.4715C104.23 53.1003 104.3 52.7328 104.436 52.3902C104.571 52.0475 104.77 51.7364 105.02 51.4748C105.271 51.2131 105.568 51.0061 105.895 50.8657C106.221 50.7252 106.571 50.6541 106.924 50.6563C107.635 50.6563 108.316 50.9529 108.818 51.4809C109.32 52.0088 109.602 52.7248 109.602 53.4715Z" fill="url(#paint3_linear_705_1396)"/>
<path d="M19.8444 98.8152C19.8466 99.1864 19.7789 99.5543 19.6453 99.8978C19.5117 100.241 19.3148 100.554 19.0659 100.817C18.817 101.08 18.5211 101.289 18.1952 101.432C17.8692 101.574 17.5197 101.647 17.1667 101.647C16.4522 101.647 15.7669 101.349 15.2617 100.818C14.7565 100.287 14.4727 99.5664 14.4727 98.8152C14.4726 98.4441 14.5424 98.0766 14.678 97.7339C14.8136 97.3913 15.0123 97.0802 15.2627 96.8185C15.5131 96.5569 15.8102 96.3499 16.1369 96.2094C16.4637 96.069 16.8136 95.9978 17.1667 96.0001C17.8768 96.0001 18.5579 96.2967 19.0601 96.8246C19.5623 97.3525 19.8444 98.0686 19.8444 98.8152Z" fill="#6DE0F6"/>
<path d="M19.8444 98.8152C19.8466 99.1864 19.7789 99.5543 19.6453 99.8978C19.5117 100.241 19.3148 100.554 19.0659 100.817C18.817 101.08 18.5211 101.289 18.1952 101.432C17.8692 101.574 17.5197 101.647 17.1667 101.647C16.4522 101.647 15.7669 101.349 15.2617 100.818C14.7565 100.287 14.4727 99.5664 14.4727 98.8152C14.4726 98.4441 14.5424 98.0766 14.678 97.7339C14.8136 97.3913 15.0123 97.0802 15.2627 96.8185C15.5131 96.5569 15.8102 96.3499 16.1369 96.2094C16.4637 96.069 16.8136 95.9978 17.1667 96.0001C17.8768 96.0001 18.5579 96.2967 19.0601 96.8246C19.5623 97.3525 19.8444 98.0686 19.8444 98.8152Z" fill="url(#paint4_linear_705_1396)"/>
<path d="M63.7722 40.0271C63.7722 40.7737 63.49 41.4897 62.9879 42.0177C62.4857 42.5456 61.8046 42.8422 61.0944 42.8422C60.7414 42.8445 60.3914 42.7733 60.0647 42.6329C59.7379 42.4924 59.4408 42.2854 59.1904 42.0238C58.94 41.7621 58.7413 41.451 58.6058 41.1084C58.4702 40.7657 58.4004 40.3982 58.4004 40.0271C58.4004 39.2759 58.6842 38.5555 59.1894 38.0244C59.6946 37.4932 60.3799 37.1948 61.0944 37.1948C61.4474 37.1948 61.7969 37.2682 62.1229 37.4108C62.4488 37.5533 62.7448 37.7622 62.9936 38.0254C63.2425 38.2886 63.4394 38.601 63.573 38.9445C63.7066 39.288 63.7743 39.6559 63.7722 40.0271Z" fill="#6DE0F6"/>
<path d="M63.7722 40.0271C63.7722 40.7737 63.49 41.4897 62.9879 42.0177C62.4857 42.5456 61.8046 42.8422 61.0944 42.8422C60.7414 42.8445 60.3914 42.7733 60.0647 42.6329C59.7379 42.4924 59.4408 42.2854 59.1904 42.0238C58.94 41.7621 58.7413 41.451 58.6058 41.1084C58.4702 40.7657 58.4004 40.3982 58.4004 40.0271C58.4004 39.2759 58.6842 38.5555 59.1894 38.0244C59.6946 37.4932 60.3799 37.1948 61.0944 37.1948C61.4474 37.1948 61.7969 37.2682 62.1229 37.4108C62.4488 37.5533 62.7448 37.7622 62.9936 38.0254C63.2425 38.2886 63.4394 38.601 63.573 38.9445C63.7066 39.288 63.7743 39.6559 63.7722 40.0271Z" fill="url(#paint5_linear_705_1396)"/>
<path d="M100.882 110C100.882 111.591 100.282 113.117 99.2133 114.243C98.1448 115.368 96.6957 116 95.1846 116C93.6736 116 92.2245 115.368 91.156 114.243C90.0876 113.117 89.4873 111.591 89.4873 110C89.4873 108.409 90.0876 106.883 91.156 105.757C92.2245 104.632 93.6736 104 95.1846 104C96.6957 104 98.1448 104.632 99.2133 105.757C100.282 106.883 100.882 108.409 100.882 110Z" fill="#6DE0F6"/>
<path d="M100.882 110C100.882 111.591 100.282 113.117 99.2133 114.243C98.1448 115.368 96.6957 116 95.1846 116C93.6736 116 92.2245 115.368 91.156 114.243C90.0876 113.117 89.4873 111.591 89.4873 110C89.4873 108.409 90.0876 106.883 91.156 105.757C92.2245 104.632 93.6736 104 95.1846 104C96.6957 104 98.1448 104.632 99.2133 105.757C100.282 106.883 100.882 108.409 100.882 110Z" fill="url(#paint6_linear_705_1396)"/>
<path d="M102.782 21C104.879 21 106.58 19.2091 106.58 17C106.58 14.7908 104.879 13 102.782 13C100.684 13 98.9834 14.7908 98.9834 17C98.9834 19.2091 100.684 21 102.782 21Z" fill="#6DE0F6"/>
<path d="M102.782 21C104.879 21 106.58 19.2091 106.58 17C106.58 14.7908 104.879 13 102.782 13C100.684 13 98.9834 14.7908 98.9834 17C98.9834 19.2091 100.684 21 102.782 21Z" fill="url(#paint7_linear_705_1396)"/>
<path d="M29.4803 72.4443H41.0678L53.9373 64.6301C54.9641 64.1381 56.0864 63.9064 57.214 63.9538C58.3415 64.0012 59.4427 64.3263 60.4289 64.9031L72.844 72.4443H84.4152V107.66C84.4185 108.041 84.3158 108.416 84.1198 108.737C83.9238 109.058 83.6429 109.312 83.3116 109.468L59.9582 123.629C58.9302 124.119 57.8071 124.348 56.6796 124.297C55.552 124.247 54.4515 123.919 53.4667 123.339L31.0545 109.69C30.6414 109.506 30.2774 109.219 29.9945 108.853C29.7116 108.487 29.5183 108.054 29.4316 107.591L29.4803 72.4443Z" fill="url(#paint8_linear_705_1396)"/>
<path d="M31.0708 109.195L53.4829 122.844C54.4677 123.424 55.5682 123.752 56.6958 123.802C57.8233 123.853 58.9464 123.624 59.9745 123.135L83.3116 108.956C83.6429 108.8 83.9238 108.546 84.1198 108.225C84.3158 107.904 84.4185 107.529 84.4152 107.148V107.711C84.4185 108.092 84.3158 108.467 84.1198 108.788C83.9238 109.109 83.6429 109.363 83.3116 109.519L59.9582 123.629C58.9302 124.119 57.8071 124.348 56.6796 124.297C55.552 124.247 54.4515 123.919 53.4667 123.339L31.0545 109.69C30.6414 109.506 30.2774 109.219 29.9945 108.853C29.7116 108.487 29.5183 108.054 29.4316 107.591V107.028C29.51 107.505 29.7012 107.953 29.9877 108.332C30.2741 108.711 30.6466 109.008 31.0708 109.195Z" fill="url(#paint9_linear_705_1396)"/>
<path d="M83.6689 108.274V73.0585H72.0328L59.6177 65.5173C58.6315 64.9406 57.5303 64.6154 56.4028 64.568C55.2752 64.5206 54.1529 64.7522 53.1261 65.2443L40.2566 73.0585H29.3994V72.4443H40.9869L53.8564 64.6301C54.8832 64.1381 56.0056 63.9064 57.1331 63.9538C58.2606 64.0012 59.3618 64.3263 60.348 64.9031L72.7631 72.4443H84.3343V107.66C84.3376 108.041 84.2349 108.416 84.0389 108.737C83.8429 109.058 83.562 109.312 83.2307 109.468L83.0847 109.553C83.2637 109.397 83.4086 109.201 83.5094 108.981C83.6102 108.76 83.6646 108.519 83.6689 108.274Z" fill="#D4088C"/>
<path d="M30.1459 73.1094V108.273C30.205 108.738 30.3974 109.173 30.6974 109.519C30.3819 109.318 30.1113 109.048 29.9042 108.727C29.697 108.406 29.5581 108.042 29.4971 107.659V72.5293C29.7378 72.6902 29.9562 72.8854 30.1459 73.1094Z" fill="#6EE8FC"/>
<path d="M59.9573 88.4312L83.2945 74.27C84.9174 73.2634 84.7389 71.506 82.8239 70.3458L60.4117 56.6965C59.4282 56.1131 58.3273 55.7828 57.1991 55.7324C56.0708 55.682 54.9473 55.9129 53.9202 56.4064L30.583 70.5676C28.9601 71.5742 29.1386 73.3316 31.0537 74.5088L53.4658 88.1582C54.4519 88.7349 55.5531 89.0601 56.6806 89.1075C57.8082 89.1549 58.9305 88.9232 59.9573 88.4312Z" fill="#FF2C9C"/>
<path d="M30.5992 70.6186L53.9364 56.4574C54.9411 55.9307 56.0629 55.7007 57.1822 55.792C56.3591 55.817 55.553 56.0449 54.829 56.4574L31.4594 70.6186C29.8365 71.6252 29.9988 73.3825 31.9138 74.5598L54.3259 88.2091C55.3244 88.7811 56.4354 89.1022 57.5717 89.1475C56.1415 89.2419 54.7145 88.917 53.4495 88.2091L31.0374 74.5598C29.1549 73.3825 28.9439 71.6252 30.5992 70.6186Z" fill="#FFC4E2"/>
<path d="M59.1794 84.3874L76.5606 73.8434C77.7939 73.0926 77.6317 71.7789 76.2035 70.9088L59.5364 60.7912C58.7986 60.3534 57.9722 60.1065 57.1256 60.0709C56.279 60.0353 55.4365 60.212 54.6678 60.5864L37.2866 71.1306C36.0532 71.8813 36.2155 73.1779 37.6274 74.0481L54.3107 84.1656C55.0473 84.6061 55.873 84.856 56.7196 84.8945C57.5662 84.9331 58.4094 84.7593 59.1794 84.3874Z" fill="#FF2C9C"/>
<path d="M58.5625 81.0773L71.1561 73.4336C72.0487 72.8876 71.9351 71.9322 70.8964 71.318L58.8221 63.9815C58.2929 63.6696 57.7012 63.4931 57.095 63.4664C56.4888 63.4398 55.8851 63.5636 55.3329 63.828L42.8204 71.4715C41.9278 72.0005 42.0414 72.9559 43.0638 73.5872L55.1544 80.9237C55.6757 81.2147 56.2522 81.3795 56.8419 81.4061C57.4316 81.4326 58.0194 81.3203 58.5625 81.0773Z" fill="#961A5C"/>
<path d="M58.903 88.4311L82.2401 74.27C83.863 73.2633 83.6845 71.506 81.7695 70.3458L59.3736 56.6964C58.4006 56.1316 57.3188 55.805 56.209 55.741C57.6682 55.6291 59.1273 55.9607 60.4123 56.6964L82.8244 70.3458C84.7394 71.506 84.9504 73.2633 83.295 74.27L59.9579 88.4311C58.9314 88.9803 57.7775 89.2111 56.6309 89.0965C57.4256 89.0533 58.2015 88.8261 58.903 88.4311Z" fill="#D4088C"/>
<path d="M70.912 72.342L58.8214 64.9714C58.2922 64.6595 57.7005 64.483 57.0943 64.4564C56.488 64.4297 55.8844 64.5535 55.3322 64.8178L42.8197 72.4444C42.6448 72.5498 42.495 72.6957 42.3815 72.8709C42.304 72.7481 42.2536 72.6086 42.2339 72.4627C42.2142 72.3168 42.2258 72.168 42.2678 72.0274C42.3098 71.8868 42.3812 71.7578 42.4766 71.6499C42.5721 71.542 42.6893 71.4579 42.8197 71.4036L55.4133 63.7259C55.9655 63.4616 56.5692 63.3377 57.1754 63.3644C57.7816 63.3911 58.3733 63.5675 58.9026 63.8794L70.9931 71.25C71.8046 71.7448 72.0317 72.4273 71.6909 72.9562C71.4849 72.6854 71.2169 72.4741 70.912 72.342Z" fill="#871851"/>
<path d="M70.9127 73.5878L58.8222 66.2171C58.293 65.9052 57.7012 65.7287 57.095 65.7021C56.4888 65.6754 55.8852 65.7993 55.333 66.0636L42.7394 73.7413C42.6022 73.832 42.4767 73.941 42.3661 74.0655C42.2577 73.9398 42.1818 73.7869 42.1458 73.6215C42.1098 73.456 42.1148 73.2837 42.1605 73.1209C42.2061 72.9582 42.2908 72.8105 42.4064 72.692C42.5219 72.5736 42.6646 72.4884 42.8205 72.4446L55.4141 64.7669C55.9663 64.5025 56.57 64.3787 57.1762 64.4054C57.7824 64.4321 58.3741 64.6085 58.9034 64.9204L70.9939 72.2911C71.854 72.8029 72.065 73.5536 71.6106 74.0996C71.4147 73.8794 71.1769 73.7051 70.9127 73.5878Z" fill="#FF2C9C"/>
<path d="M71.4161 75.5325C71.2685 75.3706 71.099 75.2327 70.913 75.1231L58.8225 67.7524C58.2932 67.4405 57.7015 67.2641 57.0953 67.2374C56.4891 67.2107 55.8855 67.3345 55.3333 67.5989L42.7396 75.2766C42.6494 75.325 42.5672 75.3883 42.4962 75.4643C42.3688 75.3537 42.2709 75.2103 42.2118 75.0482C42.1527 74.886 42.1345 74.7106 42.159 74.5388C42.1835 74.3671 42.2499 74.205 42.3516 74.0682C42.4533 73.9313 42.587 73.8245 42.7396 73.7581L55.3333 66.0803C55.8855 65.816 56.4891 65.6922 57.0953 65.7189C57.7015 65.7456 58.2932 65.922 58.8225 66.2339L70.913 73.6045C71.838 74.1505 72.0328 74.9695 71.4161 75.5325Z" fill="#DE2687"/>
<path fill-rule="evenodd" clip-rule="evenodd" d="M76.417 73.777L59.0358 84.321C58.2658 84.6929 57.4226 84.8667 56.576 84.8281C55.7294 84.7896 54.9037 84.5397 54.1672 84.0992L37.4839 73.9817C36.0719 73.1115 35.9096 71.8149 37.143 71.0642L54.5242 60.52C55.293 60.1456 56.1355 59.9689 56.982 60.0045C57.8286 60.0401 58.655 60.287 59.3929 60.7248L76.06 70.8423C77.4881 71.7125 77.6504 73.0262 76.417 73.777ZM71.0121 73.3672L58.4185 81.0109C57.8755 81.2539 57.2876 81.3662 56.6979 81.3397C56.1083 81.3131 55.5317 81.1483 55.0104 80.8573L42.9199 73.5208C41.8975 72.8895 41.7839 71.934 42.6765 71.4051L55.189 63.7615C55.7412 63.4972 56.3448 63.3734 56.951 63.4C57.5572 63.4267 58.1489 63.6032 58.6782 63.9151L70.7525 71.2516C71.7911 71.8658 71.9047 72.8212 71.0121 73.3672Z" fill="#FF2C9C"/>
<defs>
<linearGradient id="paint0_linear_705_1396" x1="0.250902" y1="47.5477" x2="8.07751" y2="50.8309" gradientUnits="userSpaceOnUse">
<stop offset="0.167835" stop-color="#FF3EAF"/>
<stop offset="0.539063" stop-color="#B60E6F"/>
<stop offset="1" stop-color="#EB319D"/>
</linearGradient>
<linearGradient id="paint1_linear_705_1396" x1="36.9662" y1="17.8203" x2="48.7549" y2="22.7498" gradientUnits="userSpaceOnUse">
<stop offset="0.167835" stop-color="#FF3EAF"/>
<stop offset="0.539063" stop-color="#B60E6F"/>
<stop offset="1" stop-color="#EB319D"/>
</linearGradient>
<linearGradient id="paint2_linear_705_1396" x1="24.8026" y1="28.6586" x2="29.4021" y2="30.5844" gradientUnits="userSpaceOnUse">
<stop offset="0.167835" stop-color="#FF3EAF"/>
<stop offset="0.539063" stop-color="#B60E6F"/>
<stop offset="1" stop-color="#EB319D"/>
</linearGradient>
<linearGradient id="paint3_linear_705_1396" x1="104.106" y1="53.5321" x2="109.081" y2="55.6152" gradientUnits="userSpaceOnUse">
<stop offset="0.167835" stop-color="#FF3EAF"/>
<stop offset="0.539063" stop-color="#B60E6F"/>
<stop offset="1" stop-color="#EB319D"/>
</linearGradient>
<linearGradient id="paint4_linear_705_1396" x1="14.3479" y1="98.8759" x2="19.3232" y2="100.959" gradientUnits="userSpaceOnUse">
<stop offset="0.167835" stop-color="#FF3EAF"/>
<stop offset="0.539063" stop-color="#B60E6F"/>
<stop offset="1" stop-color="#EB319D"/>
</linearGradient>
<linearGradient id="paint5_linear_705_1396" x1="58.2756" y1="40.0707" x2="63.2509" y2="42.1538" gradientUnits="userSpaceOnUse">
<stop offset="0.167835" stop-color="#FF3EAF"/>
<stop offset="0.539063" stop-color="#B60E6F"/>
<stop offset="1" stop-color="#EB319D"/>
</linearGradient>
<linearGradient id="paint6_linear_705_1396" x1="89.2227" y1="110.111" x2="99.7816" y2="114.524" gradientUnits="userSpaceOnUse">
<stop offset="0.167835" stop-color="#FF3EAF"/>
<stop offset="0.539063" stop-color="#B60E6F"/>
<stop offset="1" stop-color="#EB319D"/>
</linearGradient>
<linearGradient id="paint7_linear_705_1396" x1="98.807" y1="17.0738" x2="105.846" y2="20.016" gradientUnits="userSpaceOnUse">
<stop offset="0.167835" stop-color="#FF3EAF"/>
<stop offset="0.539063" stop-color="#B60E6F"/>
<stop offset="1" stop-color="#EB319D"/>
</linearGradient>
<linearGradient id="paint8_linear_705_1396" x1="89.6084" y1="94.1297" x2="22.6966" y2="94.1297" gradientUnits="userSpaceOnUse">
<stop stop-color="#A31FA9"/>
<stop offset="0.07" stop-color="#8B17A0"/>
<stop offset="0.15" stop-color="#740F98"/>
<stop offset="0.24" stop-color="#640A92"/>
<stop offset="0.34" stop-color="#5B078F"/>
<stop offset="0.48" stop-color="#58068E"/>
<stop offset="0.63" stop-color="#4D22A3"/>
<stop offset="0.94" stop-color="#3168DA"/>
<stop offset="1" stop-color="#2C75E4"/>
</linearGradient>
<linearGradient id="paint9_linear_705_1396" x1="89.6084" y1="115.696" x2="22.6966" y2="115.696" gradientUnits="userSpaceOnUse">
<stop stop-color="#D4088C"/>
<stop offset="0.23" stop-color="#D4088C"/>
<stop offset="0.51" stop-color="#6EE1F8"/>
<stop offset="0.78" stop-color="#6EE8FC"/>
<stop offset="1" stop-color="#6EE8FC"/>
</linearGradient>
</defs>
</svg>
