<svg width="367" height="323" viewBox="0 0 367 323" fill="none" xmlns="http://www.w3.org/2000/svg">
<path d="M151.954 245.313C118.843 202.543 126.663 141.037 169.42 107.936C212.178 74.8343 273.681 82.672 306.792 125.442C339.903 168.212 332.083 229.717 289.326 262.819C246.569 295.92 185.065 288.083 151.954 245.313Z" fill="url(#paint0_linear_705_1402)"/>
<path d="M151.249 219.894L153.96 220.738C154.66 220.958 155.224 220.738 155.224 220.206V199.267C155.214 199.006 155.094 198.749 154.875 198.517C154.656 198.286 154.342 198.086 153.96 197.933L151.249 197.089C150.564 196.861 150 197.089 150 197.612V218.551C150.006 218.813 150.122 219.071 150.339 219.304C150.555 219.537 150.867 219.739 151.249 219.894Z" fill="#6DE0F6"/>
<path d="M151.249 197.097L151.904 197.299V217.859C151.911 218.121 152.03 218.38 152.249 218.613C152.469 218.846 152.783 219.047 153.168 219.201L155.224 219.851V220.231C155.224 220.746 154.66 220.983 153.96 220.763L151.249 219.919C150.869 219.765 150.559 219.564 150.342 219.333C150.125 219.102 150.008 218.845 150 218.585V197.646C150 197.105 150.564 196.869 151.249 197.097Z" fill="#267FE5"/>
<path d="M161.248 227.894L163.959 228.738C164.659 228.958 165.223 228.738 165.223 228.206V207.267C165.213 207.006 165.093 206.749 164.874 206.517C164.655 206.286 164.341 206.086 163.959 205.933L161.248 205.089C160.563 204.861 159.999 205.089 159.999 205.612V226.551C160.005 226.813 160.121 227.071 160.338 227.304C160.554 227.537 160.866 227.739 161.248 227.894Z" fill="#6DE0F6"/>
<path d="M161.248 205.097L161.903 205.299V225.859C161.91 226.121 162.029 226.38 162.248 226.613C162.468 226.846 162.782 227.047 163.167 227.201L165.223 227.851V228.231C165.223 228.746 164.659 228.983 163.959 228.763L161.248 227.919C160.868 227.765 160.558 227.564 160.341 227.333C160.124 227.102 160.007 226.845 159.999 226.585V205.646C159.999 205.105 160.563 204.869 161.248 205.097Z" fill="#267FE5"/>
<path d="M171.249 236.894L173.96 237.738C174.66 237.958 175.224 237.738 175.224 237.206V216.267C175.214 216.006 175.094 215.749 174.875 215.517C174.656 215.286 174.342 215.086 173.96 214.933L171.249 214.089C170.564 213.861 170 214.089 170 214.612V235.551C170.006 235.813 170.122 236.071 170.339 236.304C170.555 236.537 170.867 236.739 171.249 236.894Z" fill="#6DE0F6"/>
<path d="M171.249 214.097L171.904 214.299V234.859C171.911 235.121 172.03 235.38 172.249 235.613C172.469 235.846 172.783 236.047 173.168 236.201L175.224 236.851V237.231C175.224 237.746 174.66 237.983 173.96 237.763L171.249 236.919C170.869 236.765 170.559 236.564 170.342 236.333C170.125 236.102 170.008 235.845 170 235.585V214.646C170 214.105 170.564 213.869 171.249 214.097Z" fill="#267FE5"/>
<path d="M267.61 235.828C267.359 235.822 267.113 235.754 266.894 235.63C266.588 235.412 266.345 235.117 266.19 234.775C266.035 234.433 265.973 234.056 266.011 233.682V193.745C266.016 192.933 266.216 192.135 266.595 191.417C266.974 190.699 267.521 190.083 268.189 189.621L303.4 169.287C303.648 169.117 303.939 169.018 304.24 169.002C304.54 168.986 304.84 169.053 305.105 169.195C305.413 169.413 305.658 169.707 305.816 170.049C305.973 170.391 306.038 170.769 306.004 171.143V211.081C305.995 211.892 305.793 212.689 305.414 213.406C305.036 214.124 304.491 214.74 303.826 215.205L268.6 235.524C268.302 235.71 267.961 235.815 267.61 235.828ZM304.39 169.819C304.189 169.831 303.995 169.894 303.826 170.002L268.6 190.336C268.062 190.729 267.622 191.241 267.315 191.833C267.009 192.424 266.844 193.079 266.833 193.745V233.682C266.806 233.911 266.834 234.142 266.917 234.357C266.999 234.572 267.132 234.763 267.305 234.915C267.449 234.974 267.606 234.995 267.761 234.977C267.915 234.958 268.063 234.9 268.189 234.809L303.4 214.49C303.936 214.095 304.375 213.582 304.681 212.991C304.987 212.4 305.153 211.746 305.166 211.081V171.143C305.198 170.915 305.171 170.682 305.089 170.466C305.006 170.251 304.87 170.06 304.694 169.911C304.604 169.851 304.498 169.819 304.39 169.819Z" fill="#480689"/>
<path d="M299.166 178.966C299.166 180.062 299.943 180.488 300.887 179.956C301.384 179.629 301.798 179.191 302.094 178.675C302.39 178.16 302.561 177.582 302.593 176.988C302.593 175.892 301.831 175.466 300.887 175.999C300.388 176.324 299.972 176.762 299.673 177.278C299.374 177.793 299.2 178.372 299.166 178.966Z" fill="#6DE0F6"/>
<path d="M302.036 184.238C302.705 183.081 302.703 181.829 302.033 181.442C301.363 181.055 300.278 181.68 299.61 182.838C298.941 183.995 298.943 185.247 299.613 185.634C300.283 186.021 301.368 185.396 302.036 184.238Z" fill="#6DE0F6"/>
<path d="M299.166 190.077C299.166 191.173 299.943 191.599 300.887 191.066C301.394 190.733 301.814 190.282 302.111 189.752C302.408 189.222 302.573 188.629 302.593 188.022C302.593 186.942 301.831 186.5 300.887 187.033C300.378 187.367 299.957 187.817 299.658 188.347C299.358 188.876 299.19 189.469 299.166 190.077Z" fill="#6DE0F6"/>
<path d="M299.957 190.397C300.459 190.074 300.877 189.636 301.176 189.12C301.475 188.604 301.647 188.024 301.678 187.429C301.683 187.247 301.652 187.066 301.586 186.896C302.15 186.896 302.531 187.337 302.531 188.098C302.511 188.705 302.346 189.298 302.049 189.828C301.752 190.358 301.332 190.809 300.825 191.142C300.048 191.584 299.409 191.371 299.195 190.701C299.471 190.667 299.734 190.562 299.957 190.397Z" fill="#267FE5"/>
<path d="M299.957 184.826C300.46 184.505 300.88 184.068 301.179 183.552C301.479 183.035 301.65 182.455 301.678 181.858C301.679 181.677 301.648 181.496 301.586 181.326C302.15 181.326 302.531 181.767 302.531 182.543C302.511 183.15 302.346 183.743 302.049 184.273C301.752 184.803 301.332 185.254 300.825 185.587C300.048 186.029 299.409 185.816 299.195 185.131C299.472 185.101 299.736 184.995 299.957 184.826Z" fill="#267FE5"/>
<path d="M299.957 179.271C300.469 178.941 300.893 178.491 301.193 177.961C301.493 177.431 301.659 176.836 301.678 176.227C301.679 176.045 301.648 175.865 301.586 175.694C302.15 175.694 302.531 176.136 302.531 176.912C302.498 177.505 302.327 178.083 302.031 178.598C301.734 179.114 301.321 179.553 300.825 179.88C300.048 180.321 299.409 180.093 299.195 179.423C299.458 179.439 299.72 179.387 299.957 179.271Z" fill="#267FE5"/>
<path d="M270.776 215.875L271.919 215.22C272.111 215.08 272.267 214.897 272.375 214.686C272.484 214.474 272.541 214.24 272.543 214.003V208.554C272.543 208.082 272.269 207.869 271.919 208.082L270.776 208.737C270.582 208.875 270.422 209.058 270.311 209.269C270.2 209.481 270.14 209.715 270.137 209.954V215.403C270.137 215.875 270.426 216.088 270.776 215.875Z" fill="#480689"/>
<path d="M285.929 261.631C306.455 245.74 319.826 222.344 323.1 196.589C326.374 170.835 319.284 144.831 303.389 124.299C291.979 109.546 276.569 98.3818 258.996 92.138C277.953 98.1202 294.628 109.757 306.785 125.488C322.68 146.02 329.77 172.024 326.496 197.778C323.221 223.533 309.85 246.929 289.324 262.819C276.31 272.892 260.964 279.515 244.706 282.077C228.449 284.638 211.807 283.054 196.323 277.472C211.426 282.293 227.474 283.37 243.084 280.611C258.693 277.851 273.397 271.337 285.929 261.631Z" fill="#D4088C"/>
<path d="M260.492 92.5495C245.803 88.4116 228.455 86.9793 213.477 89.8915C198.499 92.8037 184.413 99.1854 172.349 108.525C151.823 124.416 138.452 147.812 135.177 173.566C131.903 199.321 138.993 225.325 154.889 245.856C166.709 261.17 184.715 273.413 203.062 279.54C182.773 273.941 164.842 261.916 151.96 245.268C144.089 235.101 138.298 223.485 134.916 211.081C131.534 198.678 130.627 185.73 132.249 172.978C133.87 160.225 137.987 147.918 144.365 136.758C150.743 125.598 159.257 115.805 169.42 107.936C182.159 98.0734 197.137 91.5085 213.024 88.8243C228.911 86.1402 245.216 87.4198 260.492 92.5495Z" fill="#6EE8FC"/>
<path d="M215.391 173.748C229.66 155.305 229.618 131.377 215.297 120.304C200.976 109.231 177.799 115.205 163.53 133.648C149.261 152.091 149.304 176.019 163.625 187.092C177.946 198.165 201.122 192.191 215.391 173.748Z" fill="#6DE0F6"/>
<path d="M178.675 142.017C189.445 128.086 205.289 121.3 218.571 123.568C217.584 122.384 216.491 121.292 215.307 120.305C200.981 109.229 177.778 115.199 163.549 133.649C149.32 152.098 149.32 176.062 163.647 187.089C167.125 189.743 171.206 191.497 175.526 192.195C164.707 180.172 165.638 158.868 178.675 142.017Z" fill="#25BFEC"/>
<path d="M170.45 137.564C182.704 121.724 201.452 115.167 215.648 120.632C215.518 120.534 215.453 120.403 215.322 120.305C200.996 109.229 177.792 115.199 163.564 133.649C149.335 152.098 149.335 176.062 163.662 187.089C165.65 188.597 167.849 189.806 170.188 190.678C156.27 179.487 156.302 155.834 170.45 137.564Z" fill="#267FE5"/>
<g opacity="0.2">
<path d="M214.85 120.305C214.638 120.142 214.393 120.012 214.165 119.849L60.1129 0L0 87.5822L165.849 188.883C180.257 197.399 201.535 191.086 214.964 173.762C229.225 155.312 229.177 131.382 214.85 120.305Z" fill="url(#paint1_linear_705_1402)" style="mix-blend-mode:lighten"/>
</g>
<g opacity="0.25">
<path d="M210.478 122.997C210.282 122.833 210.07 122.719 209.858 122.573L73.1681 16.2471L19.8105 93.9766L166.993 183.826C179.769 191.379 198.664 185.784 210.56 170.401C223.222 154.056 223.189 132.817 210.478 122.997Z" fill="url(#paint2_linear_705_1402)" style="mix-blend-mode:lighten"/>
</g>
<path d="M164.005 152.832C164.533 153.21 165.13 153.478 165.762 153.623C166.395 153.767 167.05 153.784 167.689 153.674C168.328 153.563 168.939 153.326 169.486 152.977C170.033 152.628 170.505 152.174 170.875 151.642C171.249 151.115 171.516 150.519 171.659 149.888C171.802 149.257 171.819 148.605 171.708 147.968C171.597 147.331 171.361 146.722 171.014 146.176C170.666 145.631 170.214 145.16 169.683 144.79C169.156 144.416 168.56 144.149 167.929 144.006C167.298 143.863 166.646 143.846 166.008 143.957C165.371 144.068 164.762 144.304 164.217 144.651C163.671 144.998 163.2 145.45 162.83 145.981C162.454 146.507 162.187 147.102 162.042 147.732C161.898 148.362 161.88 149.014 161.989 149.651C162.099 150.288 162.333 150.898 162.679 151.443C163.025 151.989 163.476 152.461 164.005 152.832Z" fill="#6DE0F6"/>
<path d="M164.005 152.832C164.533 153.21 165.13 153.478 165.762 153.623C166.395 153.767 167.05 153.784 167.689 153.674C168.328 153.563 168.939 153.326 169.486 152.977C170.033 152.628 170.505 152.174 170.875 151.642C171.249 151.115 171.516 150.519 171.659 149.888C171.802 149.257 171.819 148.605 171.708 147.968C171.597 147.331 171.361 146.722 171.014 146.176C170.666 145.631 170.214 145.16 169.683 144.79C169.156 144.416 168.56 144.149 167.929 144.006C167.298 143.863 166.646 143.846 166.008 143.957C165.371 144.068 164.762 144.304 164.217 144.651C163.671 144.998 163.2 145.45 162.83 145.981C162.454 146.507 162.187 147.102 162.042 147.732C161.898 148.362 161.88 149.014 161.989 149.651C162.099 150.288 162.333 150.898 162.679 151.443C163.025 151.989 163.476 152.461 164.005 152.832Z" fill="url(#paint3_linear_705_1402)"/>
<path d="M116.079 78.8387C116.606 79.2134 117.203 79.48 117.833 79.623C118.464 79.766 119.117 79.7826 119.754 79.6719C120.392 79.5611 121.001 79.3252 121.546 78.9778C122.092 78.6304 122.563 78.1784 122.933 77.6479C123.307 77.1209 123.574 76.5249 123.717 75.8943C123.86 75.2637 123.877 74.611 123.766 73.9739C123.655 73.3368 123.419 72.7281 123.072 72.1827C122.724 71.6373 122.272 71.1662 121.741 70.7966C121.214 70.4218 120.618 70.1553 119.987 70.0123C119.357 69.8693 118.704 69.8527 118.066 69.9634C117.429 70.0741 116.82 70.31 116.275 70.6574C115.729 71.0048 115.258 71.4568 114.888 71.9874C114.513 72.5144 114.247 73.1104 114.104 73.741C113.961 74.3716 113.944 75.0243 114.055 75.6614C114.165 76.2984 114.401 76.9072 114.749 77.4526C115.096 77.9979 115.549 78.4691 116.079 78.8387Z" fill="#6DE0F6"/>
<path d="M116.079 78.8387C116.606 79.2134 117.203 79.48 117.833 79.623C118.464 79.766 119.117 79.7826 119.754 79.6719C120.392 79.5611 121.001 79.3252 121.546 78.9778C122.092 78.6304 122.563 78.1784 122.933 77.6479C123.307 77.1209 123.574 76.5249 123.717 75.8943C123.86 75.2637 123.877 74.611 123.766 73.9739C123.655 73.3368 123.419 72.7281 123.072 72.1827C122.724 71.6373 122.272 71.1662 121.741 70.7966C121.214 70.4218 120.618 70.1553 119.987 70.0123C119.357 69.8693 118.704 69.8527 118.066 69.9634C117.429 70.0741 116.82 70.31 116.275 70.6574C115.729 71.0048 115.258 71.4568 114.888 71.9874C114.513 72.5144 114.247 73.1104 114.104 73.741C113.961 74.3716 113.944 75.0243 114.055 75.6614C114.165 76.2984 114.401 76.9072 114.749 77.4526C115.096 77.9979 115.549 78.4691 116.079 78.8387Z" fill="url(#paint4_linear_705_1402)"/>
<path d="M133.786 147.352C134.319 147.726 134.978 147.875 135.62 147.765C136.263 147.655 136.835 147.295 137.212 146.764C137.588 146.229 137.737 145.567 137.627 144.922C137.517 144.278 137.157 143.703 136.625 143.322C136.088 142.948 135.424 142.802 134.779 142.915C134.134 143.028 133.56 143.391 133.182 143.926C132.809 144.461 132.662 145.121 132.776 145.763C132.889 146.406 133.252 146.977 133.786 147.352Z" fill="#6DE0F6"/>
<path d="M133.786 147.352C134.319 147.726 134.978 147.875 135.62 147.765C136.263 147.655 136.835 147.295 137.212 146.764C137.588 146.229 137.737 145.567 137.627 144.922C137.517 144.278 137.157 143.703 136.625 143.322C136.088 142.948 135.424 142.802 134.779 142.915C134.134 143.028 133.56 143.391 133.182 143.926C132.809 144.461 132.662 145.121 132.776 145.763C132.889 146.406 133.252 146.977 133.786 147.352Z" fill="url(#paint5_linear_705_1402)"/>
<path d="M125.595 124.449C126.559 124.449 127.341 123.667 127.341 122.703C127.341 121.739 126.559 120.958 125.595 120.958C124.63 120.958 123.849 121.739 123.849 122.703C123.849 123.667 124.63 124.449 125.595 124.449Z" fill="#6DE0F6"/>
<path d="M125.595 124.449C126.559 124.449 127.341 123.667 127.341 122.703C127.341 121.739 126.559 120.958 125.595 120.958C124.63 120.958 123.849 121.739 123.849 122.703C123.849 123.667 124.63 124.449 125.595 124.449Z" fill="url(#paint6_linear_705_1402)"/>
<path d="M151.147 108.217C152.112 108.217 152.893 107.436 152.893 106.472C152.893 105.508 152.112 104.727 151.147 104.727C150.183 104.727 149.401 105.508 149.401 106.472C149.401 107.436 150.183 108.217 151.147 108.217Z" fill="#6DE0F6"/>
<path d="M151.147 108.217C152.112 108.217 152.893 107.436 152.893 106.472C152.893 105.508 152.112 104.727 151.147 104.727C150.183 104.727 149.401 105.508 149.401 106.472C149.401 107.436 150.183 108.217 151.147 108.217Z" fill="url(#paint7_linear_705_1402)"/>
<path d="M151.147 108.217C152.112 108.217 152.893 107.436 152.893 106.472C152.893 105.508 152.112 104.727 151.147 104.727C150.183 104.727 149.401 105.508 149.401 106.472C149.401 107.436 150.183 108.217 151.147 108.217Z" fill="#6DE0F6"/>
<path d="M151.147 108.217C152.112 108.217 152.893 107.436 152.893 106.472C152.893 105.508 152.112 104.727 151.147 104.727C150.183 104.727 149.401 105.508 149.401 106.472C149.401 107.436 150.183 108.217 151.147 108.217Z" fill="url(#paint8_linear_705_1402)"/>
<path d="M149.399 86.1955C150.364 86.1955 151.145 85.414 151.145 84.45C151.145 83.4861 150.364 82.7046 149.399 82.7046C148.435 82.7046 147.653 83.4861 147.653 84.45C147.653 85.414 148.435 86.1955 149.399 86.1955Z" fill="#6DE0F6"/>
<path d="M149.399 86.1955C150.364 86.1955 151.145 85.414 151.145 84.45C151.145 83.4861 150.364 82.7046 149.399 82.7046C148.435 82.7046 147.653 83.4861 147.653 84.45C147.653 85.414 148.435 86.1955 149.399 86.1955Z" fill="url(#paint9_linear_705_1402)"/>
<path d="M126.98 100.763C128.72 100.763 130.13 99.3534 130.13 97.6146C130.13 95.8759 128.72 94.4663 126.98 94.4663C125.241 94.4663 123.831 95.8759 123.831 97.6146C123.831 99.3534 125.241 100.763 126.98 100.763Z" fill="#6DE0F6"/>
<path d="M126.98 100.763C128.72 100.763 130.13 99.3534 130.13 97.6146C130.13 95.8759 128.72 94.4663 126.98 94.4663C125.241 94.4663 123.831 95.8759 123.831 97.6146C123.831 99.3534 125.241 100.763 126.98 100.763Z" fill="url(#paint10_linear_705_1402)"/>
<path d="M81.8143 73.5862C83.5536 73.5862 84.9635 72.1767 84.9635 70.4379C84.9635 68.6991 83.5536 67.2896 81.8143 67.2896C80.075 67.2896 78.665 68.6991 78.665 70.4379C78.665 72.1767 80.075 73.5862 81.8143 73.5862Z" fill="#6DE0F6"/>
<path d="M81.8143 73.5862C83.5536 73.5862 84.9635 72.1767 84.9635 70.4379C84.9635 68.6991 83.5536 67.2896 81.8143 67.2896C80.075 67.2896 78.665 68.6991 78.665 70.4379C78.665 72.1767 80.075 73.5862 81.8143 73.5862Z" fill="url(#paint11_linear_705_1402)"/>
<path d="M99.0782 91.4318C99.4595 91.6985 99.9309 91.8036 100.389 91.7242C100.848 91.6447 101.256 91.3872 101.526 91.0077C101.661 90.8207 101.757 90.6087 101.81 90.3841C101.863 90.1595 101.87 89.9267 101.832 89.6992C101.794 89.4716 101.712 89.2539 101.589 89.0585C101.466 88.8631 101.306 88.6939 101.118 88.5608C100.928 88.4262 100.714 88.3303 100.488 88.2788C100.261 88.2272 100.027 88.221 99.7976 88.2604C99.5686 88.2998 99.3497 88.3841 99.1534 88.5085C98.9571 88.6328 98.7873 88.7947 98.6539 88.9849C98.3913 89.3675 98.2887 89.8375 98.3679 90.2947C98.4472 90.7518 98.7021 91.1599 99.0782 91.4318Z" fill="#6DE0F6"/>
<path d="M99.0782 91.4318C99.4595 91.6985 99.9309 91.8036 100.389 91.7242C100.848 91.6447 101.256 91.3872 101.526 91.0077C101.661 90.8207 101.757 90.6087 101.81 90.3841C101.863 90.1595 101.87 89.9267 101.832 89.6992C101.794 89.4716 101.712 89.2539 101.589 89.0585C101.466 88.8631 101.306 88.6939 101.118 88.5608C100.928 88.4262 100.714 88.3303 100.488 88.2788C100.261 88.2272 100.027 88.221 99.7976 88.2604C99.5686 88.2998 99.3497 88.3841 99.1534 88.5085C98.9571 88.6328 98.7873 88.7947 98.6539 88.9849C98.3913 89.3675 98.2887 89.8375 98.3679 90.2947C98.4472 90.7518 98.7021 91.1599 99.0782 91.4318Z" fill="url(#paint12_linear_705_1402)"/>
<path d="M100.823 109.278C101.272 109.589 101.825 109.71 102.363 109.616C102.901 109.521 103.379 109.218 103.695 108.772C104.013 108.324 104.14 107.769 104.048 107.227C103.956 106.686 103.653 106.203 103.205 105.885C102.754 105.573 102.198 105.451 101.658 105.546C101.117 105.641 100.636 105.944 100.317 106.391C100.161 106.613 100.049 106.865 99.9902 107.13C99.9309 107.396 99.9245 107.671 99.9715 107.939C100.018 108.207 100.118 108.464 100.264 108.693C100.41 108.923 100.6 109.122 100.823 109.278Z" fill="#6DE0F6"/>
<path d="M100.823 109.278C101.272 109.589 101.825 109.71 102.363 109.616C102.901 109.521 103.379 109.218 103.695 108.772C104.013 108.324 104.14 107.769 104.048 107.227C103.956 106.686 103.653 106.203 103.205 105.885C102.754 105.573 102.198 105.451 101.658 105.546C101.117 105.641 100.636 105.944 100.317 106.391C100.161 106.613 100.049 106.865 99.9902 107.13C99.9309 107.396 99.9245 107.671 99.9715 107.939C100.018 108.207 100.118 108.464 100.264 108.693C100.41 108.923 100.6 109.122 100.823 109.278Z" fill="url(#paint13_linear_705_1402)"/>
<path d="M96.4016 108.038C96.5079 108.115 96.6287 108.17 96.7568 108.2C96.8848 108.229 97.0176 108.233 97.147 108.21C97.2764 108.187 97.3999 108.138 97.5101 108.067C97.6204 107.995 97.715 107.902 97.7885 107.793C97.8658 107.687 97.9208 107.566 97.9503 107.438C97.9799 107.31 97.9833 107.178 97.9605 107.048C97.9376 106.919 97.889 106.795 97.8174 106.685C97.7458 106.575 97.6527 106.48 97.5438 106.407C97.4366 106.332 97.3158 106.279 97.1881 106.25C97.0604 106.222 96.9284 106.219 96.7995 106.242C96.6707 106.264 96.5477 106.312 96.4374 106.383C96.3271 106.453 96.2317 106.544 96.1568 106.651C96.0817 106.759 96.0285 106.879 96.0002 107.007C95.9719 107.135 95.969 107.267 95.9917 107.395C96.0144 107.524 96.0623 107.647 96.1327 107.758C96.203 107.868 96.2944 107.963 96.4016 108.038Z" fill="#6DE0F6"/>
<path d="M96.4016 108.038C96.5079 108.115 96.6287 108.17 96.7568 108.2C96.8848 108.229 97.0176 108.233 97.147 108.21C97.2764 108.187 97.3999 108.138 97.5101 108.067C97.6204 107.995 97.715 107.902 97.7885 107.793C97.8658 107.687 97.9208 107.566 97.9503 107.438C97.9799 107.31 97.9833 107.178 97.9605 107.048C97.9376 106.919 97.889 106.795 97.8174 106.685C97.7458 106.575 97.6527 106.48 97.5438 106.407C97.4366 106.332 97.3158 106.279 97.1881 106.25C97.0604 106.222 96.9284 106.219 96.7995 106.242C96.6707 106.264 96.5477 106.312 96.4374 106.383C96.3271 106.453 96.2317 106.544 96.1568 106.651C96.0817 106.759 96.0285 106.879 96.0002 107.007C95.9719 107.135 95.969 107.267 95.9917 107.395C96.0144 107.524 96.0623 107.647 96.1327 107.758C96.203 107.868 96.2944 107.963 96.4016 108.038Z" fill="url(#paint14_linear_705_1402)"/>
<path d="M72.9868 106.782C74.5819 106.782 75.875 105.489 75.875 103.895C75.875 102.3 74.5819 101.007 72.9868 101.007C71.3917 101.007 70.0986 102.3 70.0986 103.895C70.0986 105.489 71.3917 106.782 72.9868 106.782Z" fill="#6DE0F6"/>
<path d="M72.9868 106.782C74.5819 106.782 75.875 105.489 75.875 103.895C75.875 102.3 74.5819 101.007 72.9868 101.007C71.3917 101.007 70.0986 102.3 70.0986 103.895C70.0986 105.489 71.3917 106.782 72.9868 106.782Z" fill="url(#paint15_linear_705_1402)"/>
<defs>
<linearGradient id="paint0_linear_705_1402" x1="314.31" y1="235.161" x2="145.272" y2="136.121" gradientUnits="userSpaceOnUse">
<stop stop-color="#A31FA9"/>
<stop offset="0.07" stop-color="#8B17A0"/>
<stop offset="0.15" stop-color="#740F98"/>
<stop offset="0.24" stop-color="#640A92"/>
<stop offset="0.34" stop-color="#5B078F"/>
<stop offset="0.48" stop-color="#58068E"/>
<stop offset="0.63" stop-color="#4D22A3"/>
<stop offset="0.94" stop-color="#3168DA"/>
<stop offset="1" stop-color="#2C75E4"/>
</linearGradient>
<linearGradient id="paint1_linear_705_1402" x1="195.727" y1="164.283" x2="21.6019" y2="54.4228" gradientUnits="userSpaceOnUse">
<stop offset="0.01" stop-color="#70E8FC"/>
<stop offset="0.144936" stop-color="#00F0FF"/>
<stop offset="0.232348" stop-color="#00ABFF"/>
<stop offset="0.397001" stop-color="#107BBD" stop-opacity="0.579808"/>
<stop offset="0.620348" stop-color="#1E4F7F" stop-opacity="0.186498"/>
<stop offset="1" stop-color="#253A62" stop-opacity="0"/>
</linearGradient>
<linearGradient id="paint2_linear_705_1402" x1="193.5" y1="162" x2="39" y2="64.5" gradientUnits="userSpaceOnUse">
<stop offset="0.01" stop-color="#70E8FC"/>
<stop offset="0.144936" stop-color="#00F0FF"/>
<stop offset="0.232348" stop-color="#00ABFF"/>
<stop offset="0.540223" stop-color="#0183BB" stop-opacity="0.579808"/>
<stop offset="0.776957" stop-color="#1E4F7F" stop-opacity="0.186498"/>
<stop offset="1" stop-color="#253A62" stop-opacity="0"/>
</linearGradient>
<linearGradient id="paint3_linear_705_1402" x1="162.25" y1="146.968" x2="171.403" y2="150.644" gradientUnits="userSpaceOnUse">
<stop stop-color="#FF83CB"/>
<stop offset="0.34" stop-color="#B444F9"/>
<stop offset="1" stop-color="#35D7FB"/>
</linearGradient>
<linearGradient id="paint4_linear_705_1402" x1="114.313" y1="72.9716" x2="123.461" y2="76.6466" gradientUnits="userSpaceOnUse">
<stop stop-color="#FF83CB"/>
<stop offset="0.34" stop-color="#B444F9"/>
<stop offset="1" stop-color="#35D7FB"/>
</linearGradient>
<linearGradient id="paint5_linear_705_1402" x1="132.904" y1="144.417" x2="137.474" y2="146.253" gradientUnits="userSpaceOnUse">
<stop stop-color="#FF83CB"/>
<stop offset="0.34" stop-color="#B444F9"/>
<stop offset="1" stop-color="#35D7FB"/>
</linearGradient>
<linearGradient id="paint6_linear_705_1402" x1="123.966" y1="122.049" x2="127.207" y2="123.351" gradientUnits="userSpaceOnUse">
<stop stop-color="#FF83CB"/>
<stop offset="0.34" stop-color="#B444F9"/>
<stop offset="1" stop-color="#35D7FB"/>
</linearGradient>
<linearGradient id="paint7_linear_705_1402" x1="149.519" y1="105.818" x2="152.759" y2="107.12" gradientUnits="userSpaceOnUse">
<stop stop-color="#FF83CB"/>
<stop offset="0.34" stop-color="#B444F9"/>
<stop offset="1" stop-color="#35D7FB"/>
</linearGradient>
<linearGradient id="paint8_linear_705_1402" x1="149.519" y1="105.818" x2="152.759" y2="107.12" gradientUnits="userSpaceOnUse">
<stop stop-color="#FF83CB"/>
<stop offset="0.34" stop-color="#B444F9"/>
<stop offset="1" stop-color="#35D7FB"/>
</linearGradient>
<linearGradient id="paint9_linear_705_1402" x1="147.771" y1="83.796" x2="151.011" y2="85.098" gradientUnits="userSpaceOnUse">
<stop stop-color="#FF83CB"/>
<stop offset="0.34" stop-color="#B444F9"/>
<stop offset="1" stop-color="#35D7FB"/>
</linearGradient>
<linearGradient id="paint10_linear_705_1402" x1="124.043" y1="96.4349" x2="129.888" y2="98.7834" gradientUnits="userSpaceOnUse">
<stop stop-color="#FF83CB"/>
<stop offset="0.34" stop-color="#B444F9"/>
<stop offset="1" stop-color="#35D7FB"/>
</linearGradient>
<linearGradient id="paint11_linear_705_1402" x1="78.8765" y1="69.2582" x2="84.7222" y2="71.6067" gradientUnits="userSpaceOnUse">
<stop stop-color="#FF83CB"/>
<stop offset="0.34" stop-color="#B444F9"/>
<stop offset="1" stop-color="#35D7FB"/>
</linearGradient>
<linearGradient id="paint12_linear_705_1402" x1="98.4598" y1="89.3339" x2="101.722" y2="90.6437" gradientUnits="userSpaceOnUse">
<stop stop-color="#FF83CB"/>
<stop offset="0.34" stop-color="#B444F9"/>
<stop offset="1" stop-color="#35D7FB"/>
</linearGradient>
<linearGradient id="paint13_linear_705_1402" x1="100.079" y1="106.807" x2="103.918" y2="108.35" gradientUnits="userSpaceOnUse">
<stop stop-color="#FF83CB"/>
<stop offset="0.34" stop-color="#B444F9"/>
<stop offset="1" stop-color="#35D7FB"/>
</linearGradient>
<linearGradient id="paint14_linear_705_1402" x1="96.0437" y1="106.851" x2="97.8988" y2="107.597" gradientUnits="userSpaceOnUse">
<stop stop-color="#FF83CB"/>
<stop offset="0.34" stop-color="#B444F9"/>
<stop offset="1" stop-color="#35D7FB"/>
</linearGradient>
<linearGradient id="paint15_linear_705_1402" x1="70.2926" y1="102.813" x2="75.6537" y2="104.967" gradientUnits="userSpaceOnUse">
<stop stop-color="#FF83CB"/>
<stop offset="0.34" stop-color="#B444F9"/>
<stop offset="1" stop-color="#35D7FB"/>
</linearGradient>
</defs>
</svg>
