<svg width="290" height="133" viewBox="0 0 290 133" fill="none" xmlns="http://www.w3.org/2000/svg">
<path opacity="0.6" d="M230.737 72.2312L277.013 44.0895C280.311 42.0804 279.906 38.5951 276.088 36.2816L231.619 9.26624C227.816 6.95281 222.074 6.69407 218.777 8.70311L172.501 36.8448C169.203 38.8386 169.608 42.3392 173.412 44.6526L217.881 71.668C221.698 73.9814 227.454 74.225 230.737 72.2312Z" fill="#0C0F38"/>
<path d="M225.242 80.039C222.154 80.0645 219.109 79.2688 216.391 77.7256L164.012 45.8855C161.496 44.3635 160.035 42.2783 160.035 40.1932C160.088 39.2399 160.385 38.3194 160.894 37.529C161.403 36.7386 162.106 36.1078 162.927 35.7033L217.49 2.55423C221.511 0.103822 228.539 0.408233 233.167 3.2087L285.546 35.0336C288.077 36.5556 289.523 38.656 289.523 40.7411C289.47 41.6944 289.173 42.6149 288.664 43.4053C288.155 44.1957 287.452 44.8265 286.631 45.231L232.082 78.38C229.973 79.5361 227.619 80.107 225.242 80.039ZM224.331 2.02155C222.145 1.95489 219.979 2.47889 218.04 3.54354L163.477 36.6926C162.827 37.0054 162.267 37.4943 161.856 38.1093C161.444 38.7244 161.195 39.4436 161.134 40.1932C161.134 41.8521 162.378 43.572 164.562 44.8961L216.941 76.721C221.279 79.3541 227.816 79.6433 231.532 77.3907L286.081 44.2417C286.735 43.9323 287.298 43.4446 287.713 42.8292C288.127 42.2137 288.378 41.4928 288.438 40.7411C288.438 39.0821 287.18 37.3623 284.996 36.0381L232.617 4.2132C230.077 2.75178 227.225 1.9974 224.331 2.02155Z" fill="url(#paint0_linear_705_6)"/>
<path opacity="0.6" d="M71.5596 71.6835L117.836 43.5418C121.119 41.548 120.728 38.0474 116.911 35.7492L72.4417 8.71854C68.6384 6.40511 62.8972 6.1616 59.5999 8.15541L13.3234 36.2971C10.0406 38.3061 10.4311 41.8067 14.2489 44.1049L58.7178 71.1356C62.5212 73.449 68.2768 73.6925 71.5596 71.6835Z" fill="#0C0F38"/>
<path d="M66.0496 79.5367C62.9654 79.5683 59.9244 78.7721 57.2137 77.2233L4.83432 45.3984C2.30357 43.8764 0.857422 41.7912 0.857422 39.6909C0.900488 38.7252 1.19244 37.7901 1.70195 36.9858C2.21146 36.1814 2.91933 35.5381 3.74971 35.1249L58.2983 1.97583C62.333 -0.45936 69.3613 -0.170177 73.9889 2.64551L126.368 34.4704C128.899 35.9924 130.345 38.0776 130.345 40.1627C130.302 41.1284 130.01 42.0635 129.501 42.8678C128.991 43.6722 128.283 44.3154 127.453 44.7287L72.9043 77.8777C70.7908 79.0357 68.4314 79.6067 66.0496 79.5367ZM65.153 1.53446C62.9624 1.46791 60.7919 1.99182 58.8478 3.05646L4.29925 36.2055C3.64842 36.5131 3.08781 36.9986 2.67578 37.6116C2.26376 38.2246 2.01539 38.9426 1.95651 39.6909C1.95651 41.3651 3.20018 43.0697 5.38386 44.4091L57.7343 76.1883C62.0727 78.8061 68.5948 79.1106 72.3259 76.8428L126.874 43.6937C127.527 43.3849 128.089 42.897 128.501 42.2812C128.914 41.6653 129.161 40.9441 129.217 40.1931C129.217 38.5342 127.973 36.8143 125.79 35.4902L73.4105 3.66525C70.8783 2.21352 68.0364 1.4645 65.153 1.48881V1.53446Z" fill="url(#paint1_linear_705_6)"/>
<path opacity="0.6" d="M151.864 124.177L198.14 96.0353C201.437 94.0415 201.033 90.5409 197.229 88.2427L152.789 61.2729C148.986 58.9747 143.23 58.716 139.933 60.725L93.6564 88.8515C90.3592 90.8605 90.7641 94.3611 94.5819 96.6593L139.007 123.675C142.811 125.927 148.566 126.186 151.864 124.177Z" fill="#0C0F38"/>
<path d="M146.354 132C143.268 132.03 140.227 131.228 137.518 129.671L85.2113 97.8008C82.6805 96.2788 81.2344 94.1937 81.2344 92.0933C81.2902 91.1409 81.588 90.2217 82.0968 89.4319C82.6056 88.6421 83.3067 88.0105 84.1267 87.6034L138.675 54.4543C142.695 52.0192 149.738 52.3083 154.351 55.124L206.687 86.9946C209.204 88.5166 210.664 90.617 210.664 92.7021C210.621 93.6677 210.329 94.6028 209.82 95.4072C209.31 96.2116 208.602 96.8548 207.772 97.2681L153.18 130.341C151.076 131.496 148.727 132.067 146.354 132ZM145.443 53.9825C143.257 53.9179 141.092 54.4418 139.152 55.5045L84.5894 88.6688C83.9404 88.979 83.3814 89.4653 82.9698 90.0777C82.5581 90.6902 82.3085 91.4068 82.2467 92.1542C82.2467 93.8284 83.5048 95.533 85.6885 96.8724L138.068 128.697C142.406 131.315 148.928 131.62 152.645 129.352L207.208 96.2027C207.857 95.8925 208.416 95.4062 208.828 94.7938C209.239 94.1813 209.489 93.4647 209.551 92.7173C209.551 91.0431 208.307 89.3385 206.123 87.9991L153.73 56.1742C151.191 54.7103 148.338 53.9557 145.443 53.9825Z" fill="url(#paint2_linear_705_6)"/>
<defs>
<linearGradient id="paint0_linear_705_6" x1="289.537" y1="40.4671" x2="160.05" y2="40.4671" gradientUnits="userSpaceOnUse">
<stop stop-color="#D4088C"/>
<stop offset="0.23" stop-color="#D4088C"/>
<stop offset="0.51" stop-color="#6EE1F8"/>
<stop offset="0.78" stop-color="#6EE8FC"/>
<stop offset="1" stop-color="#6EE8FC"/>
</linearGradient>
<linearGradient id="paint1_linear_705_6" x1="130.345" y1="39.9192" x2="0.857422" y2="39.9192" gradientUnits="userSpaceOnUse">
<stop stop-color="#D4088C"/>
<stop offset="0.23" stop-color="#D4088C"/>
<stop offset="0.51" stop-color="#6EE1F8"/>
<stop offset="0.78" stop-color="#6EE8FC"/>
<stop offset="1" stop-color="#6EE8FC"/>
</linearGradient>
<linearGradient id="paint2_linear_705_6" x1="210.65" y1="92.4129" x2="81.1621" y2="92.4129" gradientUnits="userSpaceOnUse">
<stop stop-color="#D4088C"/>
<stop offset="0.23" stop-color="#D4088C"/>
<stop offset="0.51" stop-color="#6EE1F8"/>
<stop offset="0.78" stop-color="#6EE8FC"/>
<stop offset="1" stop-color="#6EE8FC"/>
</linearGradient>
</defs>
</svg>
