<svg width="331" height="274" viewBox="0 0 331 274" fill="none" xmlns="http://www.w3.org/2000/svg">
<path opacity="0.6" d="M44.5784 135.301L68.0292 121.072C70.8855 119.365 70.5284 116.328 67.234 114.332L44.5784 100.598C42.891 99.6066 41.0054 99.0469 39.0742 98.9639C37.143 98.8809 35.2203 99.2769 33.4616 100.12L10.0108 114.332C7.17076 116.038 7.5278 119.075 10.806 121.072L33.4129 134.806C35.106 135.806 36.9994 136.371 38.9394 136.457C40.8794 136.543 42.8113 136.147 44.5784 135.301Z" fill="#0C0F38"/>
<path d="M39.8554 141.17C41.998 141.237 44.1211 140.726 46.0224 139.686L74.6177 122.334C75.3659 121.968 76.0056 121.395 76.4686 120.677C76.9316 119.959 77.2005 119.123 77.2468 118.256C77.1236 117.147 76.7262 116.09 76.0941 115.192C75.462 114.294 74.6173 113.586 73.644 113.138L46.0549 96.3662C41.8841 93.8411 35.5548 93.5852 31.9357 95.7861L3.35661 113.07C2.60933 113.441 1.97096 114.018 1.5084 114.738C1.04584 115.459 0.776137 116.297 0.727539 117.164C0.855448 118.272 1.25467 119.327 1.88618 120.224C2.51769 121.121 3.35986 121.83 4.33035 122.283L31.9195 139.037C34.3497 140.445 37.0808 141.179 39.8554 141.17ZM38.0865 95.4108C40.6649 95.3904 43.2059 96.0598 45.4706 97.3558L73.0598 114.11C73.8605 114.471 74.56 115.042 75.0913 115.767C75.6226 116.493 75.968 117.35 76.0946 118.256C76.0403 118.912 75.8207 119.541 75.4584 120.077C75.0961 120.614 74.6043 121.04 74.0335 121.31L45.4382 138.645C42.1924 140.658 36.3013 140.351 32.455 138.065L4.8659 121.293C4.06547 120.937 3.3658 120.37 2.83428 119.647C2.30276 118.923 1.95728 118.069 1.83111 117.164C1.88376 116.508 2.10271 115.879 2.46518 115.342C2.82766 114.805 3.32041 114.379 3.89217 114.11L32.5037 96.7586C34.2246 95.8154 36.1466 95.3514 38.0865 95.4108Z" fill="url(#paint0_linear_1367_4662)"/>
<path d="M8.0957 89.8489H27.9599L33.4615 86.5218C35.2215 85.6842 37.1435 85.2912 39.0738 85.3741C41.0041 85.4571 42.8892 86.0137 44.5783 86.9996L50.0312 90.4119H69.8792V104.419C69.8841 105.082 69.7057 105.731 69.3657 106.289C69.0257 106.846 68.5387 107.287 67.9642 107.559L44.5783 121.703C42.8224 122.546 40.9023 122.942 38.9737 122.859C37.0451 122.776 35.1622 122.216 33.4777 121.225L10.8709 107.576C10.1771 107.247 9.56955 106.746 9.10034 106.116C8.63113 105.486 8.31425 104.746 8.17685 103.959L8.0957 89.8489Z" fill="url(#paint1_linear_1367_4662)"/>
<path d="M10.8058 106.518L33.4127 120.167C35.0976 121.156 36.9794 121.715 38.9071 121.801C40.8348 121.887 42.7548 121.497 44.5133 120.662L67.9641 106.433C68.5361 106.162 69.0213 105.724 69.3612 105.17C69.701 104.616 69.8809 103.97 69.8791 103.311V104.266C69.884 104.928 69.7056 105.578 69.3656 106.135C69.0256 106.692 68.5386 107.134 67.9641 107.405L44.5782 121.703C42.8223 122.546 40.9022 122.942 38.9736 122.859C37.045 122.776 35.1621 122.216 33.4776 121.225L10.8708 107.576C10.177 107.247 9.56945 106.746 9.10025 106.116C8.63104 105.486 8.31415 104.746 8.17676 103.959V102.986C8.31945 103.751 8.63196 104.47 9.08883 105.083C9.5457 105.697 10.134 106.189 10.8058 106.518Z" fill="url(#paint2_linear_1367_4662)"/>
<path d="M68.6296 105.324V91.3161H48.7816L43.3287 87.9037C41.6409 86.914 39.7554 86.3551 37.8244 86.2722C35.8934 86.1892 33.9709 86.5844 32.2119 87.426L26.694 90.753H8.0957V89.7805H27.9599L33.4615 86.4535C35.2215 85.6159 37.1435 85.2228 39.0738 85.3058C41.0041 85.3887 42.8892 85.9454 44.5783 86.9312L50.0312 90.3435H69.8792V104.351C69.8841 105.013 69.7057 105.663 69.3657 106.22C69.0257 106.778 68.5387 107.219 67.9642 107.491L67.737 107.627C68.0353 107.334 68.2696 106.976 68.4237 106.578C68.5778 106.181 68.6481 105.753 68.6296 105.324Z" fill="#D4088C"/>
<path d="M44.5784 107.695L68.0292 93.4659C70.8855 91.7597 70.5284 88.7227 67.234 86.7265L44.5784 72.9919C42.8906 72.0034 41.0062 71.4438 39.0758 71.3578C37.1455 71.2719 35.2228 71.6621 33.4616 72.4971L10.0108 86.7265C7.17076 88.4327 7.5278 91.4697 10.806 93.4659L33.4129 107.2C35.106 108.2 36.9994 108.766 38.9394 108.852C40.8794 108.938 42.8113 108.541 44.5784 107.695Z" fill="url(#paint3_linear_1367_4662)"/>
<path d="M10.0111 86.7264L33.4619 72.5482C35.1957 71.6254 37.1419 71.2351 39.0771 71.4221C37.6656 71.4659 36.2828 71.8513 35.0361 72.5482L11.5853 86.7776C8.72901 88.4837 9.08605 91.5207 12.3805 93.5169L34.9712 107.252C36.66 108.235 38.5439 108.79 40.4728 108.872C38.0211 109.045 35.5731 108.483 33.4132 107.252L10.8063 93.5169C7.52807 91.4695 7.25217 88.4496 10.0111 86.7264Z" fill="#6EE8FC"/>
<path d="M42.7282 107.695L66.179 93.4658C69.019 91.7596 68.662 88.7226 65.3675 86.7264L42.7769 72.9918C41.1089 72.0302 39.2562 71.4761 37.3564 71.3709C39.8617 71.1727 42.3684 71.7353 44.5783 72.9918L67.1689 86.7264C70.4147 88.7226 70.8205 91.7425 67.9642 93.4658L44.5783 107.695C42.8185 108.628 40.8437 109.018 38.882 108.821C40.2275 108.75 41.5412 108.365 42.7282 107.695Z" fill="#D4088C"/>
<path d="M160.939 273.961C185.526 273.961 210.096 268.279 228.825 256.899C247.066 245.843 257.176 231.085 257.176 215.354C257.176 199.623 247.131 184.848 228.889 173.775C191.466 151.066 130.558 151.066 93.1346 173.775C74.8933 184.848 64.8477 199.623 64.8477 215.354C64.8477 231.085 74.8933 245.843 93.1346 256.916C111.782 268.279 136.368 273.961 160.939 273.961ZM160.939 158.027C185.282 158.027 209.626 163.64 228.192 174.901C246.043 185.735 255.781 200.101 255.781 215.354C255.781 230.607 245.946 244.956 228.094 255.79C191.011 278.312 130.721 278.295 93.589 255.79C75.7372 244.956 65.9999 230.59 65.9999 215.354C65.9999 200.118 75.8346 185.735 93.6864 174.901C112.236 163.657 136.596 158.027 160.955 158.027H160.939Z" fill="url(#paint4_linear_1367_4662)"/>
<path d="M160.956 265.993C207.044 265.993 244.405 243.314 244.405 215.337C244.405 187.361 207.044 164.681 160.956 164.681C114.868 164.681 77.5068 187.361 77.5068 215.337C77.5068 243.314 114.868 265.993 160.956 265.993Z" fill="#090B27"/>
<path opacity="0.5" d="M160.956 229.089C184.206 229.089 203.054 217.654 203.054 203.548C203.054 189.442 184.206 178.006 160.956 178.006C137.706 178.006 118.858 189.442 118.858 203.548C118.858 217.654 137.706 229.089 160.956 229.089Z" fill="url(#paint5_linear_1367_4662)"/>
<path opacity="0.4" d="M167.772 188.568C167.774 189.641 167.574 190.705 167.185 191.698C166.795 192.69 166.222 193.592 165.5 194.351C164.778 195.111 163.92 195.713 162.976 196.123C162.032 196.532 161.02 196.742 159.998 196.74C157.937 196.74 155.959 195.879 154.501 194.346C153.044 192.814 152.225 190.735 152.225 188.568C152.229 186.401 153.049 184.325 154.506 182.794C155.963 181.262 157.938 180.4 159.998 180.395C162.06 180.395 164.037 181.256 165.495 182.789C166.953 184.321 167.772 186.4 167.772 188.568Z" fill="#FF2C9C"/>
<path opacity="0.6" d="M281.115 133.97L254.808 118.035C251.562 116.09 252.016 112.712 255.7 110.477L281.05 95.1211C284.734 92.886 290.317 92.6471 293.514 94.5922L319.804 110.528C323.05 112.473 322.612 115.851 318.912 118.086L293.579 133.442C289.878 135.677 284.312 135.967 281.115 133.97Z" fill="#0C0F38"/>
<path d="M286.388 140.624C283.978 140.688 281.592 140.1 279.459 138.918L247.374 119.468C246.538 119.05 245.824 118.404 245.307 117.596C244.79 116.789 244.49 115.85 244.437 114.878C244.437 112.745 245.897 110.63 248.478 109.077L279.312 90.3093C283.986 87.4771 291.095 87.187 295.152 89.6439L327.236 109.094C328.077 109.508 328.795 110.153 329.315 110.961C329.835 111.769 330.137 112.71 330.19 113.684C330.19 115.816 328.713 117.932 326.149 119.485L295.314 138.253C292.579 139.827 289.507 140.643 286.388 140.624ZM288.303 89.3027C285.414 89.2764 282.566 90.022 280.027 91.4695L249.11 110.237C246.952 111.551 245.702 113.24 245.702 114.878C245.766 115.612 246.014 116.316 246.422 116.916C246.83 117.515 247.383 117.99 248.023 118.29L280.108 137.758C283.808 139.993 290.348 139.703 294.714 137.092L325.63 118.325C327.788 117.011 329.022 115.322 329.022 113.684C328.963 112.95 328.719 112.247 328.313 111.646C327.908 111.046 327.357 110.571 326.717 110.271L294.503 90.8041C292.577 89.7654 290.435 89.2492 288.271 89.3027H288.303Z" fill="url(#paint6_linear_1367_4662)"/>
<path d="M321.963 83.0581H299.696L293.513 79.3728C290.267 77.4278 284.733 77.6666 281.049 79.9188L274.931 83.6553H252.665V99.3861C252.663 100.124 252.864 100.847 253.244 101.468C253.624 102.089 254.167 102.581 254.807 102.884L281.114 118.836C284.36 120.781 289.878 120.543 293.578 118.29L318.911 102.935C319.693 102.568 320.377 102.006 320.906 101.299C321.435 100.591 321.792 99.7592 321.946 98.8743L321.963 83.0581Z" fill="url(#paint7_linear_1367_4662)"/>
<path d="M318.846 101.741L293.513 117.096C289.813 119.331 284.246 119.57 281.049 117.625L254.742 101.69C254.1 101.383 253.557 100.889 253.177 100.265C252.797 99.6415 252.596 98.9156 252.6 98.1749V99.2669C252.597 100.005 252.798 100.728 253.178 101.349C253.559 101.97 254.102 102.461 254.742 102.765L281.049 118.717C284.295 120.662 289.813 120.423 293.513 118.171L318.846 102.816C319.627 102.448 320.312 101.887 320.841 101.179C321.369 100.472 321.726 99.6399 321.881 98.755V97.6802C321.726 98.5651 321.369 99.3971 320.841 100.105C320.312 100.812 319.627 101.374 318.846 101.741Z" fill="url(#paint8_linear_1367_4662)"/>
<path d="M254.077 100.41V84.696H276.343L282.461 80.9425C286.145 78.7074 291.728 78.4685 294.909 80.4135L301.092 84.15H321.963V83.0581H299.696L293.513 79.3728C290.267 77.4278 284.733 77.6666 281.049 79.9188L274.931 83.6553H252.665V99.3861C252.663 100.124 252.864 100.847 253.244 101.468C253.624 102.089 254.167 102.581 254.807 102.884L255.067 103.037C254.724 102.706 254.457 102.298 254.285 101.843C254.114 101.388 254.043 100.898 254.077 100.41Z" fill="#D4088C"/>
<path d="M281.115 103.072L254.808 87.1189C251.562 85.1739 252.016 81.7956 255.7 79.5606L281.05 64.2051C284.734 61.97 290.317 61.7311 293.514 63.6762L319.804 79.6118C323.05 81.5568 322.612 84.935 318.912 87.1871L293.579 102.543C289.878 104.761 284.312 104.965 281.115 103.072Z" fill="url(#paint9_linear_1367_4662)"/>
<path d="M319.804 79.5437L293.514 63.6081C291.57 62.5708 289.388 62.1274 287.217 62.3285C288.799 62.3842 290.349 62.8221 291.745 63.6081L318.052 79.5437C321.297 81.4887 320.843 84.8669 317.159 87.1191L291.81 102.475C289.914 103.568 287.803 104.187 285.643 104.283C288.397 104.472 291.146 103.845 293.578 102.475L318.912 87.1191C322.612 84.8669 323.002 81.4887 319.804 79.5437Z" fill="#6EE8FC"/>
<path d="M283.143 103.071L256.836 87.1188C253.59 85.1738 254.045 81.7956 257.745 79.5605L283.078 64.205C284.949 63.1372 287.022 62.5195 289.148 62.3964C286.334 62.1681 283.517 62.7959 281.033 64.205L255.684 79.5605C252 81.7956 251.61 85.1738 254.791 87.1188L281.098 103.071C283.075 104.114 285.29 104.552 287.492 104.334C285.972 104.253 284.487 103.822 283.143 103.071Z" fill="#D4088C"/>
<path d="M287.314 92.7832C295.919 92.7832 302.894 88.5513 302.894 83.3311C302.894 78.1108 295.919 73.8789 287.314 73.8789C278.71 73.8789 271.734 78.1108 271.734 83.3311C271.734 88.5513 278.71 92.7832 287.314 92.7832Z" fill="#73FFF5"/>
<path d="M276.295 79.3727C279.708 77.5531 283.48 76.6049 287.307 76.6049C291.133 76.6049 294.906 77.5531 298.318 79.3727C299.353 79.9021 300.275 80.6468 301.028 81.5618C301.782 82.4768 302.35 83.5431 302.7 84.6959C303.381 81.8466 301.937 78.8438 298.318 76.6428C294.906 74.8232 291.133 73.875 287.307 73.875C283.48 73.875 279.708 74.8232 276.295 76.6428C272.693 78.8438 271.232 81.8466 271.914 84.6959C272.269 83.5462 272.84 82.4828 273.593 81.5686C274.345 80.6543 275.264 79.9077 276.295 79.3727Z" fill="#267FE5"/>
<g opacity="0.2">
<path d="M272 0H303V82.5502C302.994 82.7844 302.933 83.013 302.823 83.2142C302.712 83.4154 302.41 85.7287 302.224 85.8458L301.255 87.354L299.315 89.365L297.376 90.8732L294.952 91.8786L292.528 92.3814C291.961 92.713 287.838 93.0308 287.195 92.9976C286.552 92.9644 286.71 92.8841 285.549 92.9976L283.316 92.8841L278.953 91.3759L276.529 89.8677L274.59 88.3595L273.62 86.8513L273.135 86.3485C272.896 86.2019 272.515 83.537 272.359 83.2901C272.204 83.0433 272.102 82.7607 272.063 82.4644L272 0Z" fill="url(#paint10_linear_1367_4662)" style="mix-blend-mode:lighten"/>
</g>
<g opacity="0.25">
<path d="M273.783 8H301.308V82.8238C301.303 83.0344 301.507 84.0763 301.152 83.4207C301.055 83.6013 302.148 85.4831 301.983 85.5868L300.065 88.8237L296.26 91.3412L292.931 92.3482L289.601 92.8517C289.096 93.1479 287.793 92.8819 287.223 92.8517C286.653 92.8215 285.322 93.2 284.845 92.8517L281.04 92.3482L277.711 90.3342L275.808 89.3272L274.382 87.8167L273.095 85.5868C272.883 85.458 272.954 84.2922 274.057 83.4776C273.92 83.2568 273.832 83.0035 273.799 82.7379L273.783 8Z" fill="url(#paint11_linear_1367_4662)" style="mix-blend-mode:lighten"/>
</g>
<defs>
<linearGradient id="paint0_linear_1367_4662" x1="77.2468" y1="117.71" x2="0.727539" y2="117.71" gradientUnits="userSpaceOnUse">
<stop stop-color="#D4088C"/>
<stop offset="0.23" stop-color="#D4088C"/>
<stop offset="0.51" stop-color="#6EE1F8"/>
<stop offset="0.78" stop-color="#6EE8FC"/>
<stop offset="1" stop-color="#6EE8FC"/>
</linearGradient>
<linearGradient id="paint1_linear_1367_4662" x1="75.7216" y1="104.112" x2="0.435657" y2="104.112" gradientUnits="userSpaceOnUse">
<stop stop-color="#A31FA9"/>
<stop offset="0.07" stop-color="#8B17A0"/>
<stop offset="0.15" stop-color="#740F98"/>
<stop offset="0.24" stop-color="#640A92"/>
<stop offset="0.34" stop-color="#5B078F"/>
<stop offset="0.48" stop-color="#58068E"/>
<stop offset="0.63" stop-color="#4D22A3"/>
<stop offset="0.94" stop-color="#3168DA"/>
<stop offset="1" stop-color="#2C75E4"/>
</linearGradient>
<linearGradient id="paint2_linear_1367_4662" x1="75.7215" y1="112.882" x2="0.435567" y2="112.882" gradientUnits="userSpaceOnUse">
<stop stop-color="#D4088C"/>
<stop offset="0.23" stop-color="#D4088C"/>
<stop offset="0.51" stop-color="#6EE1F8"/>
<stop offset="0.78" stop-color="#6EE8FC"/>
<stop offset="1" stop-color="#6EE8FC"/>
</linearGradient>
<linearGradient id="paint3_linear_1367_4662" x1="70.5088" y1="91.8672" x2="12.1059" y2="105.395" gradientUnits="userSpaceOnUse">
<stop stop-color="#8D139B"/>
<stop offset="0.17" stop-color="#851BA1"/>
<stop offset="0.43" stop-color="#6E33B2"/>
<stop offset="0.76" stop-color="#4958CD"/>
<stop offset="1" stop-color="#2979E4"/>
</linearGradient>
<linearGradient id="paint4_linear_1367_4662" x1="257.128" y1="215.354" x2="64.7827" y2="215.354" gradientUnits="userSpaceOnUse">
<stop stop-color="#D4088C"/>
<stop offset="0.23" stop-color="#D4088C"/>
<stop offset="0.51" stop-color="#6EE1F8"/>
<stop offset="0.78" stop-color="#6EE8FC"/>
<stop offset="1" stop-color="#6EE8FC"/>
</linearGradient>
<linearGradient id="paint5_linear_1367_4662" x1="160.956" y1="151.5" x2="160.956" y2="247" gradientUnits="userSpaceOnUse">
<stop offset="0.0673017" stop-color="#FF2C9C" stop-opacity="0"/>
<stop offset="0.25778" stop-color="#FF2C9C" stop-opacity="0.353755"/>
<stop offset="1" stop-color="#FF2C9C"/>
</linearGradient>
<linearGradient id="paint6_linear_1367_4662" x1="244.404" y1="114.298" x2="330.223" y2="114.298" gradientUnits="userSpaceOnUse">
<stop stop-color="#D4088C"/>
<stop offset="0.23" stop-color="#D4088C"/>
<stop offset="0.51" stop-color="#6EE1F8"/>
<stop offset="0.78" stop-color="#6EE8FC"/>
<stop offset="1" stop-color="#6EE8FC"/>
</linearGradient>
<linearGradient id="paint7_linear_1367_4662" x1="246.109" y1="99.062" x2="330.548" y2="99.062" gradientUnits="userSpaceOnUse">
<stop stop-color="#A31FA9"/>
<stop offset="0.07" stop-color="#8B17A0"/>
<stop offset="0.15" stop-color="#740F98"/>
<stop offset="0.24" stop-color="#640A92"/>
<stop offset="0.34" stop-color="#5B078F"/>
<stop offset="0.48" stop-color="#58068E"/>
<stop offset="0.63" stop-color="#4D22A3"/>
<stop offset="0.94" stop-color="#3168DA"/>
<stop offset="1" stop-color="#2C75E4"/>
</linearGradient>
<linearGradient id="paint8_linear_1367_4662" x1="246.108" y1="108.89" x2="330.547" y2="108.89" gradientUnits="userSpaceOnUse">
<stop stop-color="#D4088C"/>
<stop offset="0.23" stop-color="#D4088C"/>
<stop offset="0.51" stop-color="#6EE1F8"/>
<stop offset="0.78" stop-color="#6EE8FC"/>
<stop offset="1" stop-color="#6EE8FC"/>
</linearGradient>
<linearGradient id="paint9_linear_1367_4662" x1="252.517" y1="84.7596" x2="318.016" y2="99.9174" gradientUnits="userSpaceOnUse">
<stop stop-color="#8D139B"/>
<stop offset="0.17" stop-color="#851BA1"/>
<stop offset="0.43" stop-color="#6E33B2"/>
<stop offset="0.76" stop-color="#4958CD"/>
<stop offset="1" stop-color="#2979E4"/>
</linearGradient>
<linearGradient id="paint10_linear_1367_4662" x1="287.5" y1="93.0215" x2="287.5" y2="-2.95352" gradientUnits="userSpaceOnUse">
<stop offset="0.01" stop-color="#70E8FC"/>
<stop offset="0.144936" stop-color="#00F0FF"/>
<stop offset="0.232348" stop-color="#00ABFF"/>
<stop offset="0.397001" stop-color="#107BBD" stop-opacity="0.579808"/>
<stop offset="0.620348" stop-color="#1E4F7F" stop-opacity="0.186498"/>
<stop offset="1" stop-color="#253A62" stop-opacity="0"/>
</linearGradient>
<linearGradient id="paint11_linear_1367_4662" x1="287.5" y1="93.0197" x2="287.5" y2="5.30055" gradientUnits="userSpaceOnUse">
<stop offset="0.01" stop-color="#70E8FC"/>
<stop offset="0.144936" stop-color="#00F0FF"/>
<stop offset="0.232348" stop-color="#00ABFF"/>
<stop offset="0.397001" stop-color="#107BBD" stop-opacity="0.579808"/>
<stop offset="0.620348" stop-color="#1E4F7F" stop-opacity="0.186498"/>
<stop offset="1" stop-color="#253A62" stop-opacity="0"/>
</linearGradient>
</defs>
</svg>
