<svg width="216" height="336" viewBox="0 0 216 336" fill="none" xmlns="http://www.w3.org/2000/svg">
<g opacity="0.3">
<path d="M201.564 247.667L141.355 20.7471H72.6254L13.8118 249.476C8.69972 269.608 17.5282 291.055 40.3623 306.598C77.6888 331.986 138.174 331.986 175.5 306.598C199.049 290.594 207.715 268.312 201.564 247.667Z" fill="url(#paint0_linear_705_1397)" style="mix-blend-mode:lighten"/>
</g>
<g opacity="0.7">
<path d="M214.856 336H2.85742L61.8656 111.788H155.23L214.856 336Z" fill="url(#paint1_linear_705_1397)" style="mix-blend-mode:lighten"/>
</g>
<path d="M82.8165 123.407L11.4093 79.8999C-2.45022 71.5055 -2.45022 57.7197 11.4093 49.4107L82.8165 6.31294C96.676 -2.09845 119.218 -2.09845 133.126 6.31294L204.533 49.8031C218.393 58.2145 218.393 71.8979 204.533 80.3093L133.126 123.407C119.218 131.819 96.676 131.819 82.8165 123.407Z" fill="url(#paint2_linear_705_1397)"/>
<path d="M82.8165 123.407L11.4093 79.8999C-2.45022 71.5055 -2.45022 57.7197 11.4093 49.4107L82.8165 6.31294C96.676 -2.09845 119.218 -2.09845 133.126 6.31294L204.533 49.8031C218.393 58.2145 218.393 71.8979 204.533 80.3093L133.126 123.407C119.218 131.819 96.676 131.819 82.8165 123.407Z" fill="#24126A"/>
<path d="M82.8165 123.407L11.4093 79.8999C-2.45022 71.5055 -2.45022 57.7197 11.4093 49.4107L82.8165 6.31294C96.676 -2.09845 119.218 -2.09845 133.126 6.31294L204.533 49.8031C218.393 58.2145 218.393 71.8979 204.533 80.3093L133.126 123.407C119.218 131.819 96.676 131.819 82.8165 123.407Z" fill="#453C9E"/>
<path d="M214.855 65.0559C214.855 70.5839 211.382 76.1119 204.453 80.3091L133.045 123.407C119.186 131.818 96.6439 131.818 82.7357 123.407L11.3285 79.8996C4.39877 75.7024 0.925781 70.1745 0.925781 64.6465V77.2209C0.925781 82.7489 4.39877 88.2769 11.3285 92.474L82.7357 135.964C96.5952 144.376 119.137 144.376 133.045 135.964L204.453 92.8835C211.269 88.7375 214.742 83.329 214.839 77.8863C214.839 77.6475 214.839 77.4086 214.839 77.1697L214.855 65.0559Z" fill="url(#paint3_linear_705_1397)"/>
<path d="M214.839 76.0096C214.742 81.4523 211.269 86.8608 204.453 90.9897L133.045 134.087C119.186 142.499 96.6439 142.499 82.7357 134.087L11.3285 90.5973C4.39877 86.383 0.925781 80.8721 0.925781 75.3442V77.2209C0.925781 82.7489 4.39877 88.2769 11.3285 92.4741L82.7357 135.964C96.5952 144.376 119.137 144.376 133.045 135.964L204.453 92.8835C211.269 88.7376 214.742 83.329 214.839 77.8864C214.839 77.6475 214.839 77.4086 214.839 77.1698V75.293C214.839 75.5318 214.855 75.7707 214.839 76.0096Z" fill="#FF2C9C"/>
<path d="M146.71 120.899C146.68 121.523 146.507 122.13 146.208 122.671C145.909 123.211 145.491 123.668 144.99 124.004C144.049 124.584 143.286 124.123 143.286 122.98C143.316 122.356 143.487 121.747 143.783 121.205C144.079 120.662 144.493 120.201 144.99 119.858C145.948 119.295 146.71 119.756 146.71 120.899Z" fill="#6DE0F6"/>
<path d="M153.868 116.514C153.845 117.129 153.687 117.729 153.405 118.268C153.123 118.807 152.726 119.27 152.245 119.619C151.303 120.199 150.524 119.739 150.524 118.579C150.56 117.956 150.735 117.35 151.033 116.811C151.332 116.272 151.747 115.814 152.245 115.473C153.17 114.91 153.868 115.371 153.868 116.514Z" fill="#6DE0F6"/>
<path d="M161.154 112.129C161.123 112.751 160.952 113.357 160.656 113.896C160.36 114.436 159.947 114.894 159.45 115.234C158.509 115.815 157.746 115.354 157.746 114.194C157.779 113.572 157.95 112.967 158.246 112.428C158.542 111.888 158.955 111.43 159.45 111.089C160.359 110.525 161.154 110.986 161.154 112.129Z" fill="#6DE0F6"/>
<path d="M168.376 107.745C168.344 108.367 168.173 108.972 167.877 109.512C167.581 110.051 167.168 110.51 166.672 110.85C165.73 111.43 165.049 110.969 165.049 109.809C165.073 109.195 165.231 108.595 165.513 108.056C165.795 107.517 166.191 107.054 166.672 106.704C167.613 106.141 168.376 106.601 168.376 107.745Z" fill="#6DE0F6"/>
<path d="M175.597 103.36C175.575 103.974 175.417 104.575 175.135 105.114C174.853 105.653 174.456 106.116 173.975 106.465C173.033 107.045 172.271 106.584 172.271 105.424C172.303 104.802 172.475 104.198 172.771 103.658C173.067 103.119 173.479 102.66 173.975 102.319C174.835 101.756 175.597 102.217 175.597 103.36Z" fill="#6DE0F6"/>
<path d="M182.819 98.9745C182.788 99.5965 182.617 100.202 182.321 100.742C182.025 101.281 181.611 101.74 181.115 102.08C180.174 102.66 179.492 102.199 179.492 101.039C179.516 100.425 179.675 99.8245 179.956 99.2857C180.238 98.7469 180.635 98.2842 181.115 97.9337C182.056 97.3707 182.819 97.8313 182.819 98.9745Z" fill="#6DE0F6"/>
<path d="M190.058 94.5897C190.027 95.2139 189.855 95.8214 189.556 96.3615C189.257 96.9017 188.839 97.3588 188.338 97.6949C187.397 98.275 186.634 97.8144 186.634 96.6542C186.667 96.0325 186.838 95.4275 187.134 94.8882C187.43 94.3488 187.842 93.8901 188.338 93.549C189.295 92.9859 190.058 93.4466 190.058 94.5897Z" fill="#6DE0F6"/>
<path d="M82.8165 123.407L11.4093 79.8999C-2.45022 71.5055 -2.45022 57.7197 11.4093 49.4107L82.8165 6.31294C96.676 -2.09845 119.218 -2.09845 133.126 6.31294L204.533 49.8031C218.393 58.2145 218.393 71.8979 204.533 80.3093L133.126 123.407C119.218 131.819 96.676 131.819 82.8165 123.407Z" fill="url(#paint4_linear_705_1397)"/>
<g opacity="0.3">
<path d="M107.956 114.637C100.535 114.789 93.2 112.945 86.6473 109.28L35.7535 78.2449C29.8624 74.679 26.6328 69.8505 26.6328 64.5955C26.6328 59.3405 29.8786 54.5974 35.7535 51.0315L86.6473 20.3205C98.397 13.1887 117.482 13.1887 129.248 20.3205L180.142 51.3898C186.033 54.9557 189.263 59.7671 189.263 64.9538C189.263 70.1406 186.017 74.969 180.142 78.6031L129.248 109.314C122.698 112.965 115.369 114.798 107.956 114.637ZM87.7022 107.352C98.8677 114.177 117.028 114.177 128.274 107.352L179.168 76.6411C184.362 73.4846 187.283 69.3387 187.283 64.988C187.283 60.6372 184.41 56.4571 179.168 53.3348L128.274 22.2826C117.109 15.458 98.9488 15.458 87.7022 22.2826L36.8083 52.9936C31.6151 56.15 28.6939 60.2789 28.6939 64.6296C28.6939 68.9804 31.5664 73.1605 36.8083 76.2828L87.7022 107.352Z" fill="#080344"/>
</g>
<path opacity="0.3" d="M106.641 97.6779L165.292 62.3091L106.657 26.5479L48.0059 61.9167L106.641 97.6779Z" fill="#080344"/>
<path opacity="0.3" d="M106.641 89.2667L151.449 62.3093L106.657 34.9595L61.8652 61.9169L106.641 89.2667Z" fill="#080344"/>
<path d="M74.3945 56.2695V61.9169L106.641 81.6573L138.904 62.3094V56.6619L74.3945 56.2695Z" fill="url(#paint5_linear_705_1397)"/>
<path d="M106.641 76.0096L138.904 56.6617L106.658 36.9214L74.3945 56.2693L106.641 76.0096Z" fill="url(#paint6_linear_705_1397)"/>
<path d="M106.641 72.0512L77.6565 54.29L74.3945 56.2692L106.641 76.0095L138.904 56.6616L135.642 54.6825L106.641 72.0512Z" fill="#6DE0F6"/>
<path d="M142.816 37.2967C142.289 37.0109 141.705 36.8618 141.112 36.8618C140.519 36.8618 139.935 37.0109 139.408 37.2967C139.204 37.3709 139.026 37.5101 138.901 37.6952C138.775 37.8802 138.708 38.1018 138.708 38.329C138.708 38.5562 138.775 38.7777 138.901 38.9628C139.026 39.1478 139.204 39.2871 139.408 39.3612C139.935 39.647 140.519 39.7961 141.112 39.7961C141.705 39.7961 142.289 39.647 142.816 39.3612C143.02 39.2871 143.198 39.1478 143.323 38.9628C143.448 38.7777 143.516 38.5562 143.516 38.329C143.516 38.1018 143.448 37.8802 143.323 37.6952C143.198 37.5101 143.02 37.3709 142.816 37.2967Z" fill="#6DE0F6"/>
<path d="M149.972 41.7157C149.446 41.4299 148.861 41.2808 148.268 41.2808C147.676 41.2808 147.091 41.4299 146.564 41.7157C145.623 42.2787 145.623 43.2 146.564 43.7801C147.094 44.058 147.677 44.2026 148.268 44.2026C148.86 44.2026 149.443 44.058 149.972 43.7801C150.914 43.2 150.914 42.2787 149.972 41.7157Z" fill="#6DE0F6"/>
<path d="M67.448 41.7157C66.9211 41.4299 66.3369 41.2808 65.744 41.2808C65.1511 41.2808 64.5668 41.4299 64.0399 41.7157C63.0987 42.2787 63.0987 43.2 64.0399 43.7801C64.5691 44.058 65.1525 44.2026 65.744 44.2026C66.3355 44.2026 66.9189 44.058 67.448 43.7801C68.3893 43.2 68.3893 42.2787 67.448 41.7157Z" fill="#6DE0F6"/>
<path d="M74.606 37.2967C74.0791 37.0109 73.4948 36.8618 72.9019 36.8618C72.3091 36.8618 71.7248 37.0109 71.1979 37.2967C70.9936 37.3709 70.8164 37.5101 70.6909 37.6952C70.5655 37.8802 70.498 38.1018 70.498 38.329C70.498 38.5562 70.5655 38.7777 70.6909 38.9628C70.8164 39.1478 70.9936 39.2871 71.1979 39.3612C71.7248 39.647 72.3091 39.7961 72.9019 39.7961C73.4948 39.7961 74.0791 39.647 74.606 39.3612C74.8103 39.2871 74.9875 39.1478 75.113 38.9628C75.2384 38.7777 75.3059 38.5562 75.3059 38.329C75.3059 38.1018 75.2384 37.8802 75.113 37.6952C74.9875 37.5101 74.8103 37.3709 74.606 37.2967Z" fill="#6DE0F6"/>
<path d="M74.606 87.4579C74.0791 87.1721 73.4948 87.0229 72.9019 87.0229C72.3091 87.0229 71.7248 87.1721 71.1979 87.4579C70.9936 87.532 70.8164 87.6713 70.6909 87.8563C70.5655 88.0413 70.498 88.2629 70.498 88.4901C70.498 88.7173 70.5655 88.9389 70.6909 89.1239C70.8164 89.309 70.9936 89.4482 71.1979 89.5223C71.7248 89.8081 72.3091 89.9572 72.9019 89.9572C73.4948 89.9572 74.0791 89.8081 74.606 89.5223C74.8103 89.4482 74.9875 89.309 75.113 89.1239C75.2384 88.9389 75.3059 88.7173 75.3059 88.4901C75.3059 88.2629 75.2384 88.0413 75.113 87.8563C74.9875 87.6713 74.8103 87.532 74.606 87.4579Z" fill="#6DE0F6"/>
<path d="M67.448 83.1075C66.9189 82.8297 66.3355 82.6851 65.744 82.6851C65.1525 82.6851 64.5691 82.8297 64.0399 83.1075C63.0987 83.6876 63.0987 84.609 64.0399 85.172C64.5668 85.4578 65.1511 85.6069 65.744 85.6069C66.3369 85.6069 66.9211 85.4578 67.448 85.172C68.3893 84.609 68.3893 83.6876 67.448 83.1075Z" fill="#6DE0F6"/>
<path d="M146.565 85.1891C147.094 85.4669 147.677 85.6115 148.269 85.6115C148.86 85.6115 149.443 85.4669 149.973 85.1891C150.175 85.1107 150.35 84.9689 150.473 84.7828C150.597 84.5967 150.663 84.3752 150.663 84.1483C150.663 83.9214 150.597 83.6999 150.473 83.5138C150.35 83.3277 150.175 83.1859 149.973 83.1075C149.443 82.8297 148.86 82.6851 148.269 82.6851C147.677 82.6851 147.094 82.8297 146.565 83.1075C146.362 83.1859 146.187 83.3277 146.064 83.5138C145.94 83.6999 145.874 83.9214 145.874 84.1483C145.874 84.3752 145.94 84.5967 146.064 84.7828C146.187 84.9689 146.362 85.1107 146.565 85.1891Z" fill="#6DE0F6"/>
<path d="M142.816 87.4579C142.289 87.1721 141.705 87.0229 141.112 87.0229C140.519 87.0229 139.935 87.1721 139.408 87.4579C139.204 87.532 139.026 87.6713 138.901 87.8563C138.775 88.0413 138.708 88.2629 138.708 88.4901C138.708 88.7173 138.775 88.9389 138.901 89.1239C139.026 89.309 139.204 89.4482 139.408 89.5223C139.935 89.8081 140.519 89.9572 141.112 89.9572C141.705 89.9572 142.289 89.8081 142.816 89.5223C143.02 89.4482 143.198 89.309 143.323 89.1239C143.448 88.9389 143.516 88.7173 143.516 88.4901C143.516 88.2629 143.448 88.0413 143.323 87.8563C143.198 87.6713 143.02 87.532 142.816 87.4579Z" fill="#6DE0F6"/>
<path d="M85.0567 123.219L13.6495 79.7289C-0.193758 71.3175 -0.226217 57.6682 13.6495 49.325L84.8457 6.5856C92.0004 2.5716 99.976 0.446112 108.086 0.392213C99.1083 0.0667999 90.2048 2.2011 82.2491 6.5856L10.8419 49.6834C-3.01761 58.0948 -3.01761 71.8635 10.8419 80.1896L82.2491 123.68C91.8891 129.532 105.716 131.289 117.953 129.02C106.446 130.556 93.9664 128.628 85.0567 123.219Z" fill="#6EE8FC"/>
<path d="M130.839 123.219L202.247 79.7289C216.09 71.3175 216.122 57.6682 202.247 49.325L131.05 6.5856C123.896 2.5716 115.92 0.446112 107.811 0.392213C116.788 0.0667999 125.691 2.2011 133.647 6.5856L205.054 49.6834C218.914 58.0948 218.914 71.8635 205.054 80.1896L133.647 123.68C124.007 129.532 110.18 131.289 97.9434 129.02C109.45 130.556 121.93 128.628 130.839 123.219Z" fill="#D4088C"/>
<defs>
<linearGradient id="paint0_linear_705_1397" x1="107.935" y1="340.597" x2="107.935" y2="20.7471" gradientUnits="userSpaceOnUse">
<stop offset="0.140171" stop-color="#0F054C" stop-opacity="0"/>
<stop offset="0.3019" stop-color="#280557" stop-opacity="0.59"/>
<stop offset="0.523436" stop-color="#91004E"/>
<stop offset="0.776587" stop-color="#E20461"/>
<stop offset="1" stop-color="#EA06B1"/>
</linearGradient>
<linearGradient id="paint1_linear_705_1397" x1="108.848" y1="347" x2="108.848" y2="111.788" gradientUnits="userSpaceOnUse">
<stop offset="0.140171" stop-color="#0F054C" stop-opacity="0"/>
<stop offset="0.363582" stop-color="#280557" stop-opacity="0.59"/>
<stop offset="0.698508" stop-color="#55056C"/>
<stop offset="0.79" stop-color="#75057B"/>
<stop offset="0.87" stop-color="#9B068C"/>
<stop offset="0.94" stop-color="#C506A0"/>
<stop offset="1" stop-color="#EA06B1"/>
</linearGradient>
<linearGradient id="paint2_linear_705_1397" x1="1.03899" y1="64.8515" x2="214.855" y2="64.8515" gradientUnits="userSpaceOnUse">
<stop stop-color="#E9E9FD"/>
<stop offset="0.36" stop-color="#D3D2F9"/>
<stop offset="0.71" stop-color="#C5C4F7"/>
<stop offset="1" stop-color="#C0BFF6"/>
</linearGradient>
<linearGradient id="paint3_linear_705_1397" x1="23.2243" y1="24.2786" x2="194.442" y2="118.304" gradientUnits="userSpaceOnUse">
<stop stop-color="#4C0E4F"/>
<stop offset="0.11" stop-color="#400951"/>
<stop offset="0.26" stop-color="#370553"/>
<stop offset="0.48" stop-color="#340454"/>
<stop offset="0.68" stop-color="#2D206F"/>
<stop offset="1" stop-color="#2054A3"/>
</linearGradient>
<linearGradient id="paint4_linear_705_1397" x1="1.03899" y1="64.8515" x2="214.855" y2="64.8515" gradientUnits="userSpaceOnUse">
<stop stop-color="#A31FA9"/>
<stop offset="0.07" stop-color="#8B17A0"/>
<stop offset="0.15" stop-color="#740F98"/>
<stop offset="0.24" stop-color="#640A92"/>
<stop offset="0.34" stop-color="#5B078F"/>
<stop offset="0.48" stop-color="#58068E"/>
<stop offset="0.63" stop-color="#4D22A3"/>
<stop offset="0.94" stop-color="#3168DA"/>
<stop offset="1" stop-color="#2C75E4"/>
</linearGradient>
<linearGradient id="paint5_linear_705_1397" x1="154.841" y1="68.9634" x2="72.1874" y2="68.9634" gradientUnits="userSpaceOnUse">
<stop stop-color="#8D139B"/>
<stop offset="0.17" stop-color="#851BA1"/>
<stop offset="0.43" stop-color="#6E33B2"/>
<stop offset="0.76" stop-color="#4958CD"/>
<stop offset="1" stop-color="#2979E4"/>
</linearGradient>
<linearGradient id="paint6_linear_705_1397" x1="74.3945" y1="56.474" x2="138.904" y2="56.474" gradientUnits="userSpaceOnUse">
<stop stop-color="#8D139B"/>
<stop offset="0.17" stop-color="#851BA1"/>
<stop offset="0.43" stop-color="#6E33B2"/>
<stop offset="0.76" stop-color="#4958CD"/>
<stop offset="1" stop-color="#2979E4"/>
</linearGradient>
</defs>
</svg>
